# Blender v2.78 (sub 0) OBJ File: 'Map.blend'
# www.blender.org
mtllib House.mtl
o right-wall_Cube.001
v 375.000000 0.000000 260.000000
v 375.000000 150.000000 260.000000
v 375.000000 0.000000 -260.000000
v 375.000000 150.000000 -260.000000
v 385.000000 0.000000 260.000000
v 385.000000 150.000000 260.000000
v 385.000000 0.000000 -260.000000
v 385.000000 150.000000 -260.000000
vt 1.0000 0.0000
vt 0.0000 1.0000
vt 0.0000 0.0000
vt 1.0000 0.0000
vt 0.0000 1.0000
vt 0.0000 0.0000
vt 1.0000 0.0000
vt 0.0000 1.0000
vt 0.0000 0.0000
vt 1.0000 0.0000
vt 0.0000 1.0000
vt 0.0000 0.0000
vt 1.0000 0.0000
vt 0.0000 1.0000
vt 0.0000 0.0000
vt 1.0000 1.0000
vt 1.0000 1.0000
vt 1.0000 1.0000
vt 1.0000 1.0000
vt 1.0000 1.0000
vn -1.0000 0.0000 0.0000
vn 0.0000 0.0000 -1.0000
vn 1.0000 0.0000 0.0000
vn 0.0000 0.0000 1.0000
vn 0.0000 -1.0000 0.0000
vn 0.0000 1.0000 0.0000
usemtl material_woodwall
s off
f 2/1/1 3/2/1 1/3/1
f 4/4/2 7/5/2 3/6/2
f 8/7/3 5/8/3 7/9/3
f 6/10/4 1/11/4 5/12/4
f 7/13/5 1/11/5 3/6/5
f 4/4/6 6/14/6 8/15/6
f 2/1/1 4/16/1 3/2/1
f 4/4/2 8/17/2 7/5/2
f 8/7/3 6/18/3 5/8/3
f 6/10/4 2/19/4 1/11/4
f 7/13/5 5/20/5 1/11/5
f 4/4/6 2/19/6 6/14/6
o left-wall_Cube.001
v -385.000000 0.000000 260.000000
v -385.000000 150.000000 260.000000
v -385.000000 0.000000 -260.000000
v -385.000000 150.000000 -260.000000
v -375.000000 0.000000 260.000000
v -375.000000 150.000000 260.000000
v -375.000000 0.000000 -260.000000
v -375.000000 150.000000 -260.000000
vt 1.0000 0.0000
vt 0.0000 1.0000
vt 0.0000 0.0000
vt 1.0000 0.0000
vt 0.0000 1.0000
vt 0.0000 0.0000
vt 1.0000 0.0000
vt 0.0000 1.0000
vt 0.0000 0.0000
vt 1.0000 0.0000
vt 0.0000 1.0000
vt 0.0000 0.0000
vt 1.0000 0.0000
vt 0.0000 1.0000
vt 0.0000 0.0000
vt 1.0000 1.0000
vt 1.0000 1.0000
vt 1.0000 1.0000
vt 1.0000 1.0000
vt 1.0000 1.0000
vn -1.0000 0.0000 0.0000
vn 0.0000 0.0000 -1.0000
vn 1.0000 0.0000 0.0000
vn 0.0000 0.0000 1.0000
vn 0.0000 -1.0000 0.0000
vn 0.0000 1.0000 0.0000
usemtl material_woodwall
s off
f 10/21/7 11/22/7 9/23/7
f 12/24/8 15/25/8 11/26/8
f 16/27/9 13/28/9 15/29/9
f 14/30/10 9/31/10 13/32/10
f 15/33/11 9/31/11 11/26/11
f 12/24/12 14/34/12 16/35/12
f 10/21/7 12/36/7 11/22/7
f 12/24/8 16/37/8 15/25/8
f 16/27/9 14/38/9 13/28/9
f 14/30/10 10/39/10 9/31/10
f 15/33/11 13/40/11 9/31/11
f 12/24/12 10/39/12 14/34/12
o front_wall_Cube.001
v -375.000000 0.000000 260.000000
v -375.000000 150.000000 260.000000
v -375.000000 0.000000 250.000000
v -375.000000 150.000000 250.000000
v 375.000000 0.000000 260.000000
v 375.000000 150.000000 260.000000
v 375.000000 0.000000 250.000000
v 375.000000 150.000000 250.000000
vt 1.0000 0.0000
vt 0.0000 1.0000
vt 0.0000 0.0000
vt 1.0000 0.0000
vt 0.0000 1.0000
vt 0.0000 0.0000
vt 1.0000 0.0000
vt 0.0000 1.0000
vt 0.0000 0.0000
vt 1.0000 0.0000
vt 0.0000 1.0000
vt 0.0000 0.0000
vt 1.0000 0.0000
vt 0.0000 1.0000
vt 0.0000 0.0000
vt 1.0000 1.0000
vt 1.0000 1.0000
vt 1.0000 1.0000
vt 1.0000 1.0000
vt 1.0000 1.0000
vn -1.0000 0.0000 0.0000
vn 0.0000 0.0000 -1.0000
vn 1.0000 0.0000 0.0000
vn 0.0000 0.0000 1.0000
vn 0.0000 -1.0000 0.0000
vn 0.0000 1.0000 0.0000
usemtl material_woodwall
s off
f 18/41/13 19/42/13 17/43/13
f 20/44/14 23/45/14 19/46/14
f 24/47/15 21/48/15 23/49/15
f 22/50/16 17/51/16 21/52/16
f 23/53/17 17/51/17 19/46/17
f 20/44/18 22/54/18 24/55/18
f 18/41/13 20/56/13 19/42/13
f 20/44/14 24/57/14 23/45/14
f 24/47/15 22/58/15 21/48/15
f 22/50/16 18/59/16 17/51/16
f 23/53/17 21/60/17 17/51/17
f 20/44/18 18/59/18 22/54/18
o Backwall_Cube.001
v -375.000000 0.000000 -250.000000
v -375.000000 150.000000 -250.000000
v -375.000000 0.000000 -260.000000
v -375.000000 150.000000 -260.000000
v 375.000000 0.000000 -250.000000
v 375.000000 150.000000 -250.000000
v 375.000000 0.000000 -260.000000
v 375.000000 150.000000 -260.000000
vt 1.0000 0.0000
vt 0.0000 1.0000
vt 0.0000 0.0000
vt 1.0000 0.0000
vt 0.0000 1.0000
vt 0.0000 0.0000
vt 1.0000 0.0000
vt 0.0000 1.0000
vt 0.0000 0.0000
vt 1.0000 0.0000
vt 0.0000 1.0000
vt 0.0000 0.0000
vt 1.0000 0.0000
vt 0.0000 1.0000
vt 0.0000 0.0000
vt 1.0000 1.0000
vt 1.0000 1.0000
vt 1.0000 1.0000
vt 1.0000 1.0000
vt 1.0000 1.0000
vn -1.0000 0.0000 0.0000
vn 0.0000 0.0000 -1.0000
vn 1.0000 0.0000 0.0000
vn 0.0000 0.0000 1.0000
vn 0.0000 -1.0000 0.0000
vn 0.0000 1.0000 0.0000
usemtl material_woodwall
s off
f 26/61/19 27/62/19 25/63/19
f 28/64/20 31/65/20 27/66/20
f 32/67/21 29/68/21 31/69/21
f 30/70/22 25/71/22 29/72/22
f 31/73/23 25/71/23 27/66/23
f 28/64/24 30/74/24 32/75/24
f 26/61/19 28/76/19 27/62/19
f 28/64/20 32/77/20 31/65/20
f 32/67/21 30/78/21 29/68/21
f 30/70/22 26/79/22 25/71/22
f 31/73/23 29/80/23 25/71/23
f 28/64/24 26/79/24 30/74/24
o Floor_Plane.034
v -125.000000 0.000000 125.000000
v 0.000000 0.000000 125.000000
v -125.000000 0.000000 0.000000
v 0.000000 0.000000 0.000000
v -250.000000 0.000000 125.000000
v -125.000000 0.000000 125.000000
v -250.000000 0.000000 0.000000
v -125.000000 0.000000 0.000000
v -375.000000 0.000000 125.000000
v -250.000000 0.000000 125.000000
v -375.000000 0.000000 0.000000
v -250.000000 0.000000 0.000000
v -375.000000 0.000000 250.000000
v -250.000000 0.000000 250.000000
v -375.000000 0.000000 125.000000
v -250.000000 0.000000 125.000000
v -250.000000 0.000000 250.000000
v -125.000000 0.000000 250.000000
v -250.000000 0.000000 125.000000
v -125.000000 0.000000 125.000000
v -125.000000 0.000000 250.000000
v 0.000000 0.000000 250.000000
v -125.000000 0.000000 125.000000
v 0.000000 0.000000 125.000000
v 250.000000 0.000000 0.000000
v 375.000000 0.000000 0.000000
v 250.000000 0.000000 -125.000000
v 375.000000 0.000000 -125.000000
v 124.999969 0.000000 0.000007
v 250.000000 0.000000 0.000007
v 124.999969 0.000000 -125.000000
v 250.000000 0.000000 -125.000000
v -0.000030 0.000000 0.000007
v 124.999969 0.000000 0.000007
v -0.000030 0.000000 -125.000000
v 124.999969 0.000000 -125.000000
v -0.000030 0.000000 -125.000000
v 124.999969 0.000000 -125.000000
v -0.000030 0.000000 -250.000000
v 124.999969 0.000000 -250.000000
v 124.999969 0.000000 -125.000000
v 250.000000 0.000000 -125.000000
v 124.999969 0.000000 -250.000000
v 250.000000 0.000000 -250.000000
v 250.000000 0.000000 -125.000000
v 375.000000 0.000000 -125.000000
v 250.000000 0.000000 -250.000000
v 375.000000 0.000000 -250.000000
v 250.000000 0.000000 125.000000
v 375.000000 0.000000 125.000000
v 250.000000 0.000000 0.000000
v 375.000000 0.000000 0.000000
v 124.999969 0.000000 124.999992
v 250.000000 0.000000 124.999992
v 124.999969 0.000000 -0.000007
v 250.000000 0.000000 -0.000007
v -0.000030 0.000000 124.999992
v 124.999969 0.000000 124.999992
v -0.000030 0.000000 -0.000007
v 124.999969 0.000000 -0.000007
v -0.000030 0.000000 250.000000
v 124.999969 0.000000 250.000000
v -0.000030 0.000000 124.999992
v 124.999969 0.000000 124.999992
v 124.999969 0.000000 250.000000
v 250.000000 0.000000 250.000000
v 124.999969 0.000000 124.999992
v 250.000000 0.000000 124.999992
v 250.000000 0.000000 250.000000
v 375.000000 0.000000 250.000000
v 250.000000 0.000000 124.999992
v 375.000000 0.000000 124.999992
v -125.000000 0.000000 0.000000
v 0.000000 0.000000 0.000000
v -125.000000 0.000000 -125.000000
v 0.000000 0.000000 -125.000000
v -250.000000 0.000000 0.000000
v -125.000000 0.000000 0.000000
v -250.000000 0.000000 -125.000000
v -125.000000 0.000000 -125.000000
v -375.000000 0.000000 0.000000
v -250.000000 0.000000 0.000000
v -375.000000 0.000000 -125.000000
v -250.000000 0.000000 -125.000000
v -375.000000 0.000000 -125.000000
v -250.000000 0.000000 -125.000000
v -375.000000 0.000000 -250.000000
v -250.000000 0.000000 -250.000000
v -250.000000 0.000000 -125.000000
v -125.000000 0.000000 -125.000000
v -250.000000 0.000000 -250.000000
v -125.000000 0.000000 -250.000000
v -125.000000 0.000000 -125.000000
v 0.000000 0.000000 -125.000000
v -125.000000 0.000000 -250.000000
v 0.000000 0.000000 -250.000000
vt 1.0000 0.0000
vt 0.0000 1.0000
vt 0.0000 0.0000
vt 1.0000 0.0000
vt 0.0000 1.0000
vt 0.0000 0.0000
vt 1.0000 0.0000
vt 0.0000 1.0000
vt 0.0000 0.0000
vt 1.0000 0.0000
vt 0.0000 1.0000
vt 0.0000 0.0000
vt 1.0000 0.0000
vt 0.0000 1.0000
vt 0.0000 0.0000
vt 1.0000 0.0000
vt 0.0000 1.0000
vt 0.0000 0.0000
vt 1.0000 0.0000
vt 0.0000 1.0000
vt 0.0000 0.0000
vt 1.0000 0.0000
vt 0.0000 1.0000
vt 0.0000 0.0000
vt 1.0000 0.0000
vt 0.0000 1.0000
vt 0.0000 0.0000
vt 1.0000 0.0000
vt 0.0000 1.0000
vt 0.0000 0.0000
vt 1.0000 0.0000
vt 0.0000 1.0000
vt 0.0000 0.0000
vt 1.0000 0.0000
vt 0.0000 1.0000
vt 0.0000 0.0000
vt 1.0000 0.0000
vt 0.0000 1.0000
vt 0.0000 0.0000
vt 1.0000 0.0000
vt 0.0000 1.0000
vt 0.0000 0.0000
vt 1.0000 0.0000
vt 0.0000 1.0000
vt 0.0000 0.0000
vt 1.0000 0.0000
vt 0.0000 1.0000
vt 0.0000 0.0000
vt 1.0000 0.0000
vt 0.0000 1.0000
vt 0.0000 0.0000
vt 1.0000 0.0000
vt 0.0000 1.0000
vt 0.0000 0.0000
vt 1.0000 0.0000
vt 0.0000 1.0000
vt 0.0000 0.0000
vt 1.0000 0.0000
vt 0.0000 1.0000
vt 0.0000 0.0000
vt 1.0000 0.0000
vt 0.0000 1.0000
vt 0.0000 0.0000
vt 1.0000 0.0000
vt 0.0000 1.0000
vt 0.0000 0.0000
vt 1.0000 0.0000
vt 0.0000 1.0000
vt 0.0000 0.0000
vt 1.0000 0.0000
vt 0.0000 1.0000
vt 0.0000 0.0000
vt 1.0000 1.0000
vt 1.0000 1.0000
vt 1.0000 1.0000
vt 1.0000 1.0000
vt 1.0000 1.0000
vt 1.0000 1.0000
vt 1.0000 1.0000
vt 1.0000 1.0000
vt 1.0000 1.0000
vt 1.0000 1.0000
vt 1.0000 1.0000
vt 1.0000 1.0000
vt 1.0000 1.0000
vt 1.0000 1.0000
vt 1.0000 1.0000
vt 1.0000 1.0000
vt 1.0000 1.0000
vt 1.0000 1.0000
vt 1.0000 1.0000
vt 1.0000 1.0000
vt 1.0000 1.0000
vt 1.0000 1.0000
vt 1.0000 1.0000
vt 1.0000 1.0000
vn 0.0000 1.0000 0.0000
usemtl material_woodfloor
s off
f 34/81/25 35/82/25 33/83/25
f 38/84/25 39/85/25 37/86/25
f 42/87/25 43/88/25 41/89/25
f 46/90/25 47/91/25 45/92/25
f 50/93/25 51/94/25 49/95/25
f 54/96/25 55/97/25 53/98/25
f 58/99/25 59/100/25 57/101/25
f 62/102/25 63/103/25 61/104/25
f 66/105/25 67/106/25 65/107/25
f 70/108/25 71/109/25 69/110/25
f 74/111/25 75/112/25 73/113/25
f 78/114/25 79/115/25 77/116/25
f 82/117/25 83/118/25 81/119/25
f 86/120/25 87/121/25 85/122/25
f 90/123/25 91/124/25 89/125/25
f 94/126/25 95/127/25 93/128/25
f 98/129/25 99/130/25 97/131/25
f 102/132/25 103/133/25 101/134/25
f 106/135/25 107/136/25 105/137/25
f 110/138/25 111/139/25 109/140/25
f 114/141/25 115/142/25 113/143/25
f 118/144/25 119/145/25 117/146/25
f 122/147/25 123/148/25 121/149/25
f 126/150/25 127/151/25 125/152/25
f 34/81/25 36/153/25 35/82/25
f 38/84/25 40/154/25 39/85/25
f 42/87/25 44/155/25 43/88/25
f 46/90/25 48/156/25 47/91/25
f 50/93/25 52/157/25 51/94/25
f 54/96/25 56/158/25 55/97/25
f 58/99/25 60/159/25 59/100/25
f 62/102/25 64/160/25 63/103/25
f 66/105/25 68/161/25 67/106/25
f 70/108/25 72/162/25 71/109/25
f 74/111/25 76/163/25 75/112/25
f 78/114/25 80/164/25 79/115/25
f 82/117/25 84/165/25 83/118/25
f 86/120/25 88/166/25 87/121/25
f 90/123/25 92/167/25 91/124/25
f 94/126/25 96/168/25 95/127/25
f 98/129/25 100/169/25 99/130/25
f 102/132/25 104/170/25 103/133/25
f 106/135/25 108/171/25 107/136/25
f 110/138/25 112/172/25 111/139/25
f 114/141/25 116/173/25 115/142/25
f 118/144/25 120/174/25 119/145/25
f 122/147/25 124/175/25 123/148/25
f 126/150/25 128/176/25 127/151/25
