v -500.0000 0.0000 -375.0000
v -500.0000 0.0000 -250.0000
v -500.0000 0.0000 -125.0000
v -500.0000 0.0000 0.0000
v -500.0000 0.0000 125.0000
v -500.0000 0.0000 250.0000
v -500.0000 0.0000 375.0000
v -375.0000 0.0000 -375.0000
v -375.0000 0.0000 -250.0000
v -375.0000 0.0000 -125.0000
v -375.0000 0.0000 0.0000
v -375.0000 0.0000 125.0000
v -375.0000 0.0000 250.0000
v -375.0000 0.0000 375.0000
v -250.0000 0.0000 -375.0000
v -250.0000 0.0000 -250.0000
v -250.0000 0.0000 -125.0000
v -250.0000 0.0000 0.0000
v -250.0000 0.0000 125.0000
v -250.0000 0.0000 250.0000
v -250.0000 0.0000 375.0000
v -125.0000 0.0000 -375.0000
v -125.0000 0.0000 -250.0000
v -125.0000 0.0000 -125.0000
v -125.0000 0.0000 0.0000
v -125.0000 0.0000 125.0000
v -125.0000 0.0000 250.0000
v -125.0000 0.0000 375.0000
v 0.0000 0.0000 -375.0000
v 0.0000 0.0000 -250.0000
v 0.0000 0.0000 -125.0000
v 0.0000 0.0000 0.0000
v 0.0000 0.0000 125.0000
v 0.0000 0.0000 250.0000
v 0.0000 0.0000 375.0000
v 125.0000 0.0000 -375.0000
v 125.0000 0.0000 -250.0000
v 125.0000 0.0000 -125.0000
v 125.0000 0.0000 0.0000
v 125.0000 0.0000 125.0000
v 125.0000 0.0000 250.0000
v 125.0000 0.0000 375.0000
v 250.0000 0.0000 -375.0000
v 250.0000 0.0000 -250.0000
v 250.0000 0.0000 -125.0000
v 250.0000 0.0000 0.0000
v 250.0000 0.0000 125.0000
v 250.0000 0.0000 250.0000
v 250.0000 0.0000 375.0000
v 375.0000 0.0000 -375.0000
v 375.0000 0.0000 -250.0000
v 375.0000 0.0000 -125.0000
v 375.0000 0.0000 0.0000
v 375.0000 0.0000 125.0000
v 375.0000 0.0000 250.0000
v 375.0000 0.0000 375.0000
v 500.0000 0.0000 -375.0000
v 500.0000 0.0000 -250.0000
v 500.0000 0.0000 -125.0000
v 500.0000 0.0000 0.0000
v 500.0000 0.0000 125.0000
v 500.0000 0.0000 250.0000
v 500.0000 0.0000 375.0000
vt 0.0 0.0
vt 0.0 1.0
vt 1.0 0.0
vt 1.0 1.0
vn 0.0 1.0 0.0
usemtl material_woodfloor
f 1/2/1 2/1/1 9/3/1
f 9/3/1 8/4/1 1/2/1
f 2/2/1 3/1/1 10/3/1
f 10/3/1 9/4/1 2/2/1
f 3/2/1 4/1/1 11/3/1
f 11/3/1 10/4/1 3/2/1
f 4/2/1 5/1/1 12/3/1
f 12/3/1 11/4/1 4/2/1
f 5/2/1 6/1/1 13/3/1
f 13/3/1 12/4/1 5/2/1
f 6/2/1 7/1/1 14/3/1
f 14/3/1 13/4/1 6/2/1
f 8/2/1 9/1/1 16/3/1
f 16/3/1 15/4/1 8/2/1
f 9/2/1 10/1/1 17/3/1
f 17/3/1 16/4/1 9/2/1
f 10/2/1 11/1/1 18/3/1
f 18/3/1 17/4/1 10/2/1
f 11/2/1 12/1/1 19/3/1
f 19/3/1 18/4/1 11/2/1
f 12/2/1 13/1/1 20/3/1
f 20/3/1 19/4/1 12/2/1
f 13/2/1 14/1/1 21/3/1
f 21/3/1 20/4/1 13/2/1
f 15/2/1 16/1/1 23/3/1
f 23/3/1 22/4/1 15/2/1
f 16/2/1 17/1/1 24/3/1
f 24/3/1 23/4/1 16/2/1
f 17/2/1 18/1/1 25/3/1
f 25/3/1 24/4/1 17/2/1
f 18/2/1 19/1/1 26/3/1
f 26/3/1 25/4/1 18/2/1
f 19/2/1 20/1/1 27/3/1
f 27/3/1 26/4/1 19/2/1
f 20/2/1 21/1/1 28/3/1
f 28/3/1 27/4/1 20/2/1
f 22/2/1 23/1/1 30/3/1
f 30/3/1 29/4/1 22/2/1
f 23/2/1 24/1/1 31/3/1
f 31/3/1 30/4/1 23/2/1
f 24/2/1 25/1/1 32/3/1
f 32/3/1 31/4/1 24/2/1
f 25/2/1 26/1/1 33/3/1
f 33/3/1 32/4/1 25/2/1
f 26/2/1 27/1/1 34/3/1
f 34/3/1 33/4/1 26/2/1
f 27/2/1 28/1/1 35/3/1
f 35/3/1 34/4/1 27/2/1
f 29/2/1 30/1/1 37/3/1
f 37/3/1 36/4/1 29/2/1
f 30/2/1 31/1/1 38/3/1
f 38/3/1 37/4/1 30/2/1
f 31/2/1 32/1/1 39/3/1
f 39/3/1 38/4/1 31/2/1
f 32/2/1 33/1/1 40/3/1
f 40/3/1 39/4/1 32/2/1
f 33/2/1 34/1/1 41/3/1
f 41/3/1 40/4/1 33/2/1
f 34/2/1 35/1/1 42/3/1
f 42/3/1 41/4/1 34/2/1
f 36/2/1 37/1/1 44/3/1
f 44/3/1 43/4/1 36/2/1
f 37/2/1 38/1/1 45/3/1
f 45/3/1 44/4/1 37/2/1
f 38/2/1 39/1/1 46/3/1
f 46/3/1 45/4/1 38/2/1
f 39/2/1 40/1/1 47/3/1
f 47/3/1 46/4/1 39/2/1
f 40/2/1 41/1/1 48/3/1
f 48/3/1 47/4/1 40/2/1
f 41/2/1 42/1/1 49/3/1
f 49/3/1 48/4/1 41/2/1
f 43/2/1 44/1/1 51/3/1
f 51/3/1 50/4/1 43/2/1
f 44/2/1 45/1/1 52/3/1
f 52/3/1 51/4/1 44/2/1
f 45/2/1 46/1/1 53/3/1
f 53/3/1 52/4/1 45/2/1
f 46/2/1 47/1/1 54/3/1
f 54/3/1 53/4/1 46/2/1
f 47/2/1 48/1/1 55/3/1
f 55/3/1 54/4/1 47/2/1
f 48/2/1 49/1/1 56/3/1
f 56/3/1 55/4/1 48/2/1
f 50/2/1 51/1/1 58/3/1
f 58/3/1 57/4/1 50/2/1
f 51/2/1 52/1/1 59/3/1
f 59/3/1 58/4/1 51/2/1
f 52/2/1 53/1/1 60/3/1
f 60/3/1 59/4/1 52/2/1
f 53/2/1 54/1/1 61/3/1
f 61/3/1 60/4/1 53/2/1
f 54/2/1 55/1/1 62/3/1
f 62/3/1 61/4/1 54/2/1
f 55/2/1 56/1/1 63/3/1
f 63/3/1 62/4/1 55/2/1
