# Blender v2.78 (sub 0) OBJ File: 'Map.blend'
# www.blender.org
mtllib House.mtl
o Plane.003_Plane.004
v 375.999939 350.000000 0.000000
v 376.000000 180.000000 250.000000
v 376.000000 180.000000 -250.000000
vn -1.0000 -0.0000 0.0000
usemtl None
s off
f 1//1 3//1 2//1
o Plane.002_Plane.003
v -374.000061 350.000000 0.000000
v -374.000000 180.000000 250.000000
v -374.000000 180.000000 -250.000000
vn 1.0000 0.0000 0.0000
usemtl None
s off
f 4//2 5//2 6//2
o Plane.001_Plane.002
v -373.477966 350.000000 -0.017487
v 377.000000 350.000000 0.017487
v -374.000000 180.000000 -250.000000
v 377.000000 180.000000 -250.000000
vn -0.0000 -0.8269 0.5623
usemtl None
s off
f 7//3 10//3 8//3
f 7//3 9//3 10//3
o Plane_Plane.001
v -373.477966 180.000000 249.965012
v 377.000000 180.000000 250.000000
v -374.000000 350.000000 0.000000
v 377.000000 350.000000 0.000000
vn 0.0000 -0.8269 -0.5623
vn 0.0000 -0.8269 -0.5624
usemtl None
s off
f 11//4 14//4 12//4
f 11//5 13//5 14//5
o Cube.011_Cube.044
v -375.000000 0.000000 250.000000
v -375.000000 50.000000 250.000000
v -375.000000 0.000000 25.000000
v -375.000000 50.000000 25.000000
v -250.000000 0.000000 250.000000
v -250.000000 50.000000 250.000000
v -250.000000 0.000000 25.000000
v -250.000000 50.000000 25.000000
vn -1.0000 0.0000 0.0000
vn 0.0000 0.0000 -1.0000
vn 1.0000 0.0000 0.0000
vn 0.0000 0.0000 1.0000
vn 0.0000 -1.0000 0.0000
vn 0.0000 1.0000 0.0000
usemtl None
s off
f 16//6 17//6 15//6
f 18//7 21//7 17//7
f 22//8 19//8 21//8
f 20//9 15//9 19//9
f 21//10 15//10 17//10
f 18//11 20//11 22//11
f 16//6 18//6 17//6
f 18//7 22//7 21//7
f 22//8 20//8 19//8
f 20//9 16//9 15//9
f 21//10 19//10 15//10
f 18//11 16//11 20//11
o Cube.010_Cube.043
v -65.000000 93.750000 -182.500000
v -65.000000 106.250000 -182.500000
v -65.000000 93.750000 -217.500000
v -65.000000 106.250000 -217.500000
v 65.000000 93.750000 -182.500000
v 65.000000 106.250000 -182.500000
v 65.000000 93.750000 -217.500000
v 65.000000 106.250000 -217.500000
vn -1.0000 0.0000 0.0000
vn 0.0000 0.0000 -1.0000
vn 1.0000 0.0000 0.0000
vn 0.0000 0.0000 1.0000
vn 0.0000 -1.0000 0.0000
vn 0.0000 1.0000 0.0000
usemtl None
s off
f 24//12 25//12 23//12
f 26//13 29//13 25//13
f 30//14 27//14 29//14
f 28//15 23//15 27//15
f 29//16 23//16 25//16
f 26//17 28//17 30//17
f 24//12 26//12 25//12
f 26//13 30//13 29//13
f 30//14 28//14 27//14
f 28//15 24//15 23//15
f 29//16 27//16 23//16
f 26//17 24//17 28//17
o Cube.009_Cube.042
v 37.500000 0.000000 -182.500000
v 37.500000 100.000000 -182.500000
v 37.500000 0.000000 -217.500000
v 37.500000 100.000000 -217.500000
v 62.500000 0.000000 -182.500000
v 62.500000 100.000000 -182.500000
v 62.500000 0.000000 -217.500000
v 62.500000 100.000000 -217.500000
vn -1.0000 0.0000 0.0000
vn 0.0000 0.0000 -1.0000
vn 1.0000 0.0000 0.0000
vn 0.0000 0.0000 1.0000
vn 0.0000 -1.0000 0.0000
vn 0.0000 1.0000 0.0000
usemtl None
s off
f 32//18 33//18 31//18
f 34//19 37//19 33//19
f 38//20 35//20 37//20
f 36//21 31//21 35//21
f 37//22 31//22 33//22
f 34//23 36//23 38//23
f 32//18 34//18 33//18
f 34//19 38//19 37//19
f 38//20 36//20 35//20
f 36//21 32//21 31//21
f 37//22 35//22 31//22
f 34//23 32//23 36//23
o Cube.008_Cube.041
v -62.500000 0.000000 -182.500000
v -62.500000 100.000000 -182.500000
v -62.500000 0.000000 -217.500000
v -62.500000 100.000000 -217.500000
v -37.500000 0.000000 -182.500000
v -37.500000 100.000000 -182.500000
v -37.500000 0.000000 -217.500000
v -37.500000 100.000000 -217.500000
vn -1.0000 0.0000 0.0000
vn 0.0000 0.0000 -1.0000
vn 1.0000 0.0000 0.0000
vn 0.0000 0.0000 1.0000
vn 0.0000 -1.0000 0.0000
vn 0.0000 1.0000 0.0000
usemtl None
s off
f 40//24 41//24 39//24
f 42//25 45//25 41//25
f 46//26 43//26 45//26
f 44//27 39//27 43//27
f 45//28 39//28 41//28
f 42//29 44//29 46//29
f 40//24 42//24 41//24
f 42//25 46//25 45//25
f 46//26 44//26 43//26
f 44//27 40//27 39//27
f 45//28 43//28 39//28
f 42//29 40//29 44//29
o Cube.007_Cube.040
v -65.000000 0.000000 -182.500000
v -65.000000 12.500000 -182.500000
v -65.000000 0.000000 -217.500000
v -65.000000 12.500000 -217.500000
v 65.000000 0.000000 -182.500000
v 65.000000 12.500000 -182.500000
v 65.000000 0.000000 -217.500000
v 65.000000 12.500000 -217.500000
vn -1.0000 0.0000 0.0000
vn 0.0000 0.0000 -1.0000
vn 1.0000 0.0000 0.0000
vn 0.0000 0.0000 1.0000
vn 0.0000 -1.0000 0.0000
vn 0.0000 1.0000 0.0000
usemtl None
s off
f 48//30 49//30 47//30
f 50//31 53//31 49//31
f 54//32 51//32 53//32
f 52//33 47//33 51//33
f 53//34 47//34 49//34
f 50//35 52//35 54//35
f 48//30 50//30 49//30
f 50//31 54//31 53//31
f 54//32 52//32 51//32
f 52//33 48//33 47//33
f 53//34 51//34 47//34
f 50//35 48//35 52//35
o Cube.006_Cube.039
v 260.000000 0.000000 -150.000000
v 260.000000 100.000000 -150.000000
v 260.000000 0.000000 -250.000000
v 260.000000 100.000000 -250.000000
v 360.000000 0.000000 -150.000000
v 360.000000 100.000000 -150.000000
v 360.000000 0.000000 -250.000000
v 360.000000 100.000000 -250.000000
vn -1.0000 0.0000 0.0000
vn 0.0000 0.0000 -1.0000
vn 1.0000 0.0000 0.0000
vn 0.0000 0.0000 1.0000
vn 0.0000 -1.0000 0.0000
vn 0.0000 1.0000 0.0000
usemtl None
s off
f 56//36 57//36 55//36
f 58//37 61//37 57//37
f 62//38 59//38 61//38
f 60//39 55//39 59//39
f 61//40 55//40 57//40
f 58//41 60//41 62//41
f 56//36 58//36 57//36
f 58//37 62//37 61//37
f 62//38 60//38 59//38
f 60//39 56//39 55//39
f 61//40 59//40 55//40
f 58//41 56//41 60//41
o Cube.005_Cube.038
v 150.000000 0.000000 -200.000000
v 150.000000 100.000000 -200.000000
v 150.000000 0.000000 -260.000000
v 150.000000 100.000000 -260.000000
v 250.000000 0.000000 -200.000000
v 250.000000 100.000000 -200.000000
v 250.000000 0.000000 -260.000000
v 250.000000 100.000000 -260.000000
vn -1.0000 0.0000 0.0000
vn 0.0000 0.0000 -1.0000
vn 1.0000 0.0000 0.0000
vn 0.0000 0.0000 1.0000
vn 0.0000 -1.0000 0.0000
vn 0.0000 1.0000 0.0000
usemtl None
s off
f 64//42 65//42 63//42
f 66//43 69//43 65//43
f 70//44 67//44 69//44
f 68//45 63//45 67//45
f 69//46 63//46 65//46
f 66//47 68//47 70//47
f 64//42 66//42 65//42
f 66//43 70//43 69//43
f 70//44 68//44 67//44
f 68//45 64//45 63//45
f 69//46 67//46 63//46
f 66//47 64//47 68//47
o Cube.004_Cube.037
v -87.500000 0.000000 -212.500000
v -87.500000 200.000000 -212.500000
v -87.500000 0.000000 -247.500000
v -87.500000 200.000000 -247.500000
v 87.500000 0.000000 -212.500000
v 87.500000 200.000000 -212.500000
v 87.500000 0.000000 -247.500000
v 87.500000 200.000000 -247.500000
vn -1.0000 0.0000 0.0000
vn 0.0000 0.0000 -1.0000
vn 1.0000 0.0000 0.0000
vn 0.0000 0.0000 1.0000
vn 0.0000 -1.0000 0.0000
vn 0.0000 1.0000 0.0000
usemtl None
s off
f 72//48 73//48 71//48
f 74//49 77//49 73//49
f 78//50 75//50 77//50
f 76//51 71//51 75//51
f 77//52 71//52 73//52
f 74//53 76//53 78//53
f 72//48 74//48 73//48
f 74//49 78//49 77//49
f 78//50 76//50 75//50
f 76//51 72//51 71//51
f 77//52 75//52 71//52
f 74//53 72//53 76//53
o Cube.003_Cube.036
v -370.000000 0.000000 -212.500000
v -370.000000 150.000000 -212.500000
v -370.000000 0.000000 -247.500000
v -370.000000 150.000000 -247.500000
v -170.000000 0.000000 -212.500000
v -170.000000 150.000000 -212.500000
v -170.000000 0.000000 -247.500000
v -170.000000 150.000000 -247.500000
vn -1.0000 0.0000 0.0000
vn 0.0000 0.0000 -1.0000
vn 1.0000 0.0000 0.0000
vn 0.0000 0.0000 1.0000
vn 0.0000 -1.0000 0.0000
vn 0.0000 1.0000 0.0000
usemtl None
s off
f 80//54 81//54 79//54
f 82//55 85//55 81//55
f 86//56 83//56 85//56
f 84//57 79//57 83//57
f 85//58 79//58 81//58
f 82//59 84//59 86//59
f 80//54 82//54 81//54
f 82//55 86//55 85//55
f 86//56 84//56 83//56
f 84//57 80//57 79//57
f 85//58 83//58 79//58
f 82//59 80//59 84//59
o Cube.002_Cube.035
v -380.000000 65.000000 -40.000000
v -380.000000 155.000000 -40.000000
v -380.000000 65.000000 -130.000000
v -380.000000 155.000000 -130.000000
v -370.000000 65.000000 -40.000000
v -370.000000 155.000000 -40.000000
v -370.000000 65.000000 -130.000000
v -370.000000 155.000000 -130.000000
vn -1.0000 0.0000 0.0000
vn 0.0000 0.0000 -1.0000
vn 1.0000 0.0000 0.0000
vn 0.0000 0.0000 1.0000
vn 0.0000 -1.0000 0.0000
vn 0.0000 1.0000 0.0000
usemtl None
s off
f 88//60 89//60 87//60
f 90//61 93//61 89//61
f 94//62 91//62 93//62
f 92//63 87//63 91//63
f 93//64 87//64 89//64
f 90//65 92//65 94//65
f 88//60 90//60 89//60
f 90//61 94//61 93//61
f 94//62 92//62 91//62
f 92//63 88//63 87//63
f 93//64 91//64 87//64
f 90//65 88//65 92//65
o Cube.001_Cube.034
v 376.404053 65.000000 -5.000000
v 376.404053 155.000000 -5.000000
v 376.404053 65.000000 -95.000000
v 376.404053 155.000000 -95.000000
v 386.404053 65.000000 -5.000000
v 386.404053 155.000000 -5.000000
v 386.404053 65.000000 -95.000000
v 386.404053 155.000000 -95.000000
vn -1.0000 0.0000 0.0000
vn 0.0000 0.0000 -1.0000
vn 1.0000 0.0000 0.0000
vn 0.0000 0.0000 1.0000
vn 0.0000 -1.0000 0.0000
vn 0.0000 1.0000 0.0000
usemtl None
s off
f 96//66 97//66 95//66
f 98//67 101//67 97//67
f 102//68 99//68 101//68
f 100//69 95//69 99//69
f 101//70 95//70 97//70
f 98//71 100//71 102//71
f 96//66 98//66 97//66
f 98//67 102//67 101//67
f 102//68 100//68 99//68
f 100//69 96//69 95//69
f 101//70 99//70 95//70
f 98//71 96//71 100//71
o Cube
v 376.404053 0.000000 160.000000
v 376.404053 150.000000 160.000000
v 376.404053 0.000000 60.000000
v 376.404053 150.000000 60.000000
v 386.404053 0.000000 160.000000
v 386.404053 150.000000 160.000000
v 386.404053 0.000000 60.000000
v 386.404053 150.000000 60.000000
vn -1.0000 0.0000 0.0000
vn 0.0000 0.0000 -1.0000
vn 1.0000 0.0000 0.0000
vn 0.0000 0.0000 1.0000
vn 0.0000 -1.0000 0.0000
vn 0.0000 1.0000 0.0000
usemtl None
s off
f 104//72 105//72 103//72
f 106//73 109//73 105//73
f 110//74 107//74 109//74
f 108//75 103//75 107//75
f 109//76 103//76 105//76
f 106//77 108//77 110//77
f 104//72 106//72 105//72
f 106//73 110//73 109//73
f 110//74 108//74 107//74
f 108//75 104//75 103//75
f 109//76 107//76 103//76
f 106//77 104//77 108//77
o Walls_Cube.033
v 376.521790 0.000011 -125.035309
v 376.521790 180.000000 -125.035309
v 376.521790 180.000000 -0.035329
v 376.521790 0.000021 -0.035329
v 376.521790 0.000021 249.964691
v 376.521790 0.000021 124.964684
v 376.521790 180.000000 124.964684
v 251.521805 0.000021 249.964691
v 251.521805 180.000000 249.964691
v 376.521790 180.000000 249.964691
v 126.521805 0.000021 249.964691
v 126.521805 180.000000 249.964691
v 1.521798 0.000021 249.964691
v -123.478172 0.000021 249.964691
v -123.478172 180.000000 249.964691
v 1.521798 180.000000 249.964691
v -248.478119 0.000021 249.964691
v -248.478119 180.000000 249.964691
v -373.478149 0.000021 249.964691
v -373.478149 180.000000 249.964691
v -373.478149 0.000021 124.964684
v -373.478149 180.000000 124.964684
v -373.478149 0.000021 -0.035314
v -373.478149 180.000000 -0.035299
v -373.478149 0.000021 -125.035301
v -373.478149 180.000000 -125.035301
v 251.521805 0.000021 -250.035278
v 251.521805 180.000000 -250.035278
v 376.521790 0.000021 -250.035278
v 376.521790 180.000000 -250.035278
v 126.521805 0.000021 -250.035278
v 126.521805 180.000000 -250.035278
v 1.521824 0.000021 -250.035278
v 1.521824 180.000000 -250.035278
v -123.478172 0.000021 -250.035278
v -123.478172 180.000000 -250.035278
v -248.478119 180.000000 -250.035278
v -373.478149 0.000021 -250.035278
v -373.478149 180.000000 -250.035278
v -248.478119 0.000021 -250.035278
vt 0.0001 0.0001
vt 0.9999 0.9999
vt 0.9999 0.0001
vt 0.0001 0.0001
vt 0.9999 0.9999
vt 0.9999 0.0001
vt 0.0001 0.0001
vt 0.9999 0.9999
vt 0.9999 0.0001
vt 0.0001 0.0001
vt 0.9999 0.9999
vt 0.9999 0.0001
vt 0.0001 0.0001
vt 0.9999 0.9999
vt 0.9999 0.0001
vt 0.0001 0.0001
vt 0.9999 0.9999
vt 0.9999 0.0001
vt 1.0000 0.0000
vt 0.0000 1.0000
vt 0.0000 0.0000
vt 1.0000 0.0001
vt 0.0000 0.9999
vt 0.0000 0.0001
vt 0.0001 0.0001
vt 0.9999 0.9999
vt 0.9999 0.0001
vt 0.0001 0.0001
vt 0.9999 0.9999
vt 0.9999 0.0001
vt 0.9999 0.9999
vt 0.9999 0.0001
vt 0.9999 0.9999
vt 0.0001 0.0001
vt 0.9999 0.0001
vt 0.9999 0.9999
vt 0.0001 0.0001
vt 0.9999 0.0001
vt 0.9999 0.9999
vt 0.0001 0.0001
vt 0.9999 0.0001
vt 0.0001 0.0001
vt 0.9999 0.9999
vt 0.0001 0.0001
vt 0.9999 0.0001
vt 0.9999 0.9999
vt 0.0001 0.0001
vt 0.9999 0.0001
vt 0.9999 0.9999
vt 0.0001 0.0001
vt 0.9999 0.0001
vt 0.9999 0.9999
vt 0.0001 0.0001
vt 0.9999 0.0001
vt 0.9999 0.9999
vt 0.0001 0.0001
vt 0.9999 0.0001
vt 0.0001 0.9999
vt 0.0001 0.9999
vt 0.0001 0.9999
vt 0.0001 0.9999
vt 0.0001 0.9999
vt 0.0001 0.9999
vt 1.0000 1.0000
vt 1.0000 0.9999
vt 0.0001 0.9999
vt 0.0001 0.9999
vt 0.0001 0.9999
vt 0.0001 0.9999
vt 0.0001 0.9999
vt 0.0001 0.9999
vt 0.0001 0.9999
vt 0.0001 0.9999
vt 0.0001 0.9999
vt 0.0001 0.9999
vt 0.0001 0.9999
vn -1.0000 0.0000 0.0000
vn 0.0000 0.0000 -1.0000
vn 1.0000 0.0000 0.0000
vn 0.0000 0.0000 1.0000
usemtl material_woodwall
s off
f 111/1/78 140/2/78 139/3/78
f 114/4/78 112/5/78 111/6/78
f 116/7/78 113/8/78 114/9/78
f 115/10/78 117/11/78 116/12/78
f 118/13/79 120/14/79 115/15/79
f 121/16/79 119/17/79 118/18/79
f 123/19/79 122/20/79 121/21/79
f 124/22/79 126/23/79 123/24/79
f 127/25/79 125/26/79 124/27/79
f 129/28/79 128/29/79 127/30/79
f 132/31/80 129/28/80 131/32/80
f 134/33/80 131/34/80 133/35/80
f 136/36/80 133/37/80 135/38/80
f 149/39/80 135/40/80 148/41/80
f 140/2/81 137/42/81 139/3/81
f 138/43/81 141/44/81 137/45/81
f 142/46/81 143/47/81 141/48/81
f 144/49/81 145/50/81 143/51/81
f 146/52/81 150/53/81 145/54/81
f 147/55/81 148/56/81 150/57/81
f 111/1/78 112/58/78 140/2/78
f 114/4/78 113/59/78 112/5/78
f 116/7/78 117/60/78 113/8/78
f 115/10/78 120/61/78 117/11/78
f 118/13/79 119/62/79 120/14/79
f 121/16/79 122/63/79 119/17/79
f 123/19/79 126/64/79 122/20/79
f 124/22/79 125/65/79 126/23/79
f 127/25/79 128/66/79 125/26/79
f 129/28/79 130/67/79 128/29/79
f 132/31/80 130/67/80 129/28/80
f 134/33/80 132/68/80 131/34/80
f 136/36/80 134/69/80 133/37/80
f 149/39/80 136/70/80 135/40/80
f 140/2/81 138/71/81 137/42/81
f 138/43/81 142/72/81 141/44/81
f 142/46/81 144/73/81 143/47/81
f 144/49/81 146/74/81 145/50/81
f 146/52/81 147/75/81 150/53/81
f 147/55/81 149/76/81 148/56/81
o Floor_Plane.034
v -125.000000 0.000000 125.000000
v 0.000000 0.000000 125.000000
v -125.000000 0.000000 0.000000
v 0.000000 0.000000 0.000000
v -250.000000 0.000000 125.000000
v -125.000000 0.000000 125.000000
v -250.000000 0.000000 0.000000
v -125.000000 0.000000 0.000000
v -375.000000 0.000000 125.000000
v -250.000000 0.000000 125.000000
v -375.000000 0.000000 0.000000
v -250.000000 0.000000 0.000000
v -375.000000 0.000000 250.000000
v -250.000000 0.000000 250.000000
v -375.000000 0.000000 125.000000
v -250.000000 0.000000 125.000000
v -250.000000 0.000000 250.000000
v -125.000000 0.000000 250.000000
v -250.000000 0.000000 125.000000
v -125.000000 0.000000 125.000000
v -125.000000 0.000000 250.000000
v 0.000000 0.000000 250.000000
v -125.000000 0.000000 125.000000
v 0.000000 0.000000 125.000000
v 250.000000 0.000000 0.000000
v 375.000000 0.000000 0.000000
v 250.000000 0.000000 -125.000000
v 375.000000 0.000000 -125.000000
v 124.999969 0.000000 0.000007
v 250.000000 0.000000 0.000007
v 124.999969 0.000000 -125.000000
v 250.000000 0.000000 -125.000000
v -0.000030 0.000000 0.000007
v 124.999969 0.000000 0.000007
v -0.000030 0.000000 -125.000000
v 124.999969 0.000000 -125.000000
v -0.000030 0.000000 -125.000000
v 124.999969 0.000000 -125.000000
v -0.000030 0.000000 -250.000000
v 124.999969 0.000000 -250.000000
v 124.999969 0.000000 -125.000000
v 250.000000 0.000000 -125.000000
v 124.999969 0.000000 -250.000000
v 250.000000 0.000000 -250.000000
v 250.000000 0.000000 -125.000000
v 375.000000 0.000000 -125.000000
v 250.000000 0.000000 -250.000000
v 375.000000 0.000000 -250.000000
v 250.000000 0.000000 125.000000
v 375.000000 0.000000 125.000000
v 250.000000 0.000000 0.000000
v 375.000000 0.000000 0.000000
v 124.999969 0.000000 124.999992
v 250.000000 0.000000 124.999992
v 124.999969 0.000000 -0.000007
v 250.000000 0.000000 -0.000007
v -0.000030 0.000000 124.999992
v 124.999969 0.000000 124.999992
v -0.000030 0.000000 -0.000007
v 124.999969 0.000000 -0.000007
v -0.000030 0.000000 250.000000
v 124.999969 0.000000 250.000000
v -0.000030 0.000000 124.999992
v 124.999969 0.000000 124.999992
v 124.999969 0.000000 250.000000
v 250.000000 0.000000 250.000000
v 124.999969 0.000000 124.999992
v 250.000000 0.000000 124.999992
v 250.000000 0.000000 250.000000
v 375.000000 0.000000 250.000000
v 250.000000 0.000000 124.999992
v 375.000000 0.000000 124.999992
v -125.000000 0.000000 0.000000
v 0.000000 0.000000 0.000000
v -125.000000 0.000000 -125.000000
v 0.000000 0.000000 -125.000000
v -250.000000 0.000000 0.000000
v -125.000000 0.000000 0.000000
v -250.000000 0.000000 -125.000000
v -125.000000 0.000000 -125.000000
v -375.000000 0.000000 0.000000
v -250.000000 0.000000 0.000000
v -375.000000 0.000000 -125.000000
v -250.000000 0.000000 -125.000000
v -375.000000 0.000000 -125.000000
v -250.000000 0.000000 -125.000000
v -375.000000 0.000000 -250.000000
v -250.000000 0.000000 -250.000000
v -250.000000 0.000000 -125.000000
v -125.000000 0.000000 -125.000000
v -250.000000 0.000000 -250.000000
v -125.000000 0.000000 -250.000000
v -125.000000 0.000000 -125.000000
v 0.000000 0.000000 -125.000000
v -125.000000 0.000000 -250.000000
v 0.000000 0.000000 -250.000000
vt 1.0000 0.0000
vt 0.0000 1.0000
vt 0.0000 0.0000
vt 1.0000 0.0000
vt 0.0000 1.0000
vt 0.0000 0.0000
vt 1.0000 0.0000
vt 0.0000 1.0000
vt 0.0000 0.0000
vt 1.0000 0.0000
vt 0.0000 1.0000
vt 0.0000 0.0000
vt 1.0000 0.0000
vt 0.0000 1.0000
vt 0.0000 0.0000
vt 1.0000 0.0000
vt 0.0000 1.0000
vt 0.0000 0.0000
vt 1.0000 0.0000
vt 0.0000 1.0000
vt 0.0000 0.0000
vt 1.0000 0.0000
vt 0.0000 1.0000
vt 0.0000 0.0000
vt 1.0000 0.0000
vt 0.0000 1.0000
vt 0.0000 0.0000
vt 1.0000 0.0000
vt 0.0000 1.0000
vt 0.0000 0.0000
vt 1.0000 0.0000
vt 0.0000 1.0000
vt 0.0000 0.0000
vt 1.0000 0.0000
vt 0.0000 1.0000
vt 0.0000 0.0000
vt 1.0000 0.0000
vt 0.0000 1.0000
vt 0.0000 0.0000
vt 1.0000 0.0000
vt 0.0000 1.0000
vt 0.0000 0.0000
vt 1.0000 0.0000
vt 0.0000 1.0000
vt 0.0000 0.0000
vt 1.0000 0.0000
vt 0.0000 1.0000
vt 0.0000 0.0000
vt 1.0000 0.0000
vt 0.0000 1.0000
vt 0.0000 0.0000
vt 1.0000 0.0000
vt 0.0000 1.0000
vt 0.0000 0.0000
vt 1.0000 0.0000
vt 0.0000 1.0000
vt 0.0000 0.0000
vt 1.0000 0.0000
vt 0.0000 1.0000
vt 0.0000 0.0000
vt 1.0000 0.0000
vt 0.0000 1.0000
vt 0.0000 0.0000
vt 1.0000 0.0000
vt 0.0000 1.0000
vt 0.0000 0.0000
vt 1.0000 0.0000
vt 0.0000 1.0000
vt 0.0000 0.0000
vt 1.0000 0.0000
vt 0.0000 1.0000
vt 0.0000 0.0000
vt 1.0000 1.0000
vt 1.0000 1.0000
vt 1.0000 1.0000
vt 1.0000 1.0000
vt 1.0000 1.0000
vt 1.0000 1.0000
vt 1.0000 1.0000
vt 1.0000 1.0000
vt 1.0000 1.0000
vt 1.0000 1.0000
vt 1.0000 1.0000
vt 1.0000 1.0000
vt 1.0000 1.0000
vt 1.0000 1.0000
vt 1.0000 1.0000
vt 1.0000 1.0000
vt 1.0000 1.0000
vt 1.0000 1.0000
vt 1.0000 1.0000
vt 1.0000 1.0000
vt 1.0000 1.0000
vt 1.0000 1.0000
vt 1.0000 1.0000
vt 1.0000 1.0000
vn 0.0000 1.0000 0.0000
usemtl material_woodfloor
s off
f 152/77/82 153/78/82 151/79/82
f 156/80/82 157/81/82 155/82/82
f 160/83/82 161/84/82 159/85/82
f 164/86/82 165/87/82 163/88/82
f 168/89/82 169/90/82 167/91/82
f 172/92/82 173/93/82 171/94/82
f 176/95/82 177/96/82 175/97/82
f 180/98/82 181/99/82 179/100/82
f 184/101/82 185/102/82 183/103/82
f 188/104/82 189/105/82 187/106/82
f 192/107/82 193/108/82 191/109/82
f 196/110/82 197/111/82 195/112/82
f 200/113/82 201/114/82 199/115/82
f 204/116/82 205/117/82 203/118/82
f 208/119/82 209/120/82 207/121/82
f 212/122/82 213/123/82 211/124/82
f 216/125/82 217/126/82 215/127/82
f 220/128/82 221/129/82 219/130/82
f 224/131/82 225/132/82 223/133/82
f 228/134/82 229/135/82 227/136/82
f 232/137/82 233/138/82 231/139/82
f 236/140/82 237/141/82 235/142/82
f 240/143/82 241/144/82 239/145/82
f 244/146/82 245/147/82 243/148/82
f 152/77/82 154/149/82 153/78/82
f 156/80/82 158/150/82 157/81/82
f 160/83/82 162/151/82 161/84/82
f 164/86/82 166/152/82 165/87/82
f 168/89/82 170/153/82 169/90/82
f 172/92/82 174/154/82 173/93/82
f 176/95/82 178/155/82 177/96/82
f 180/98/82 182/156/82 181/99/82
f 184/101/82 186/157/82 185/102/82
f 188/104/82 190/158/82 189/105/82
f 192/107/82 194/159/82 193/108/82
f 196/110/82 198/160/82 197/111/82
f 200/113/82 202/161/82 201/114/82
f 204/116/82 206/162/82 205/117/82
f 208/119/82 210/163/82 209/120/82
f 212/122/82 214/164/82 213/123/82
f 216/125/82 218/165/82 217/126/82
f 220/128/82 222/166/82 221/129/82
f 224/131/82 226/167/82 225/132/82
f 228/134/82 230/168/82 229/135/82
f 232/137/82 234/169/82 233/138/82
f 236/140/82 238/170/82 237/141/82
f 240/143/82 242/171/82 241/144/82
f 244/146/82 246/172/82 245/147/82
