# Blender v2.78 (sub 0) OBJ File: 'Bookshelf.blend'
# www.blender.org
mtllib Bookshelf.mtl
o Cube.007
v -52.500000 33.750000 20.000000
v -52.500000 38.750000 20.000000
v -52.500000 33.750000 -15.000000
v -52.500000 38.750000 -15.000000
v 52.500000 33.750000 20.000000
v 52.500000 38.750000 20.000000
v 52.500000 33.750000 -15.000000
v 52.500000 38.750000 -15.000000
vt 1.0000 0.0000
vt 0.0000 1.0000
vt 0.0000 0.0000
vt 1.0000 0.0000
vt 0.0000 1.0000
vt 0.0000 0.0000
vt 1.0000 0.0000
vt 0.0000 1.0000
vt 0.0000 0.0000
vt -1.0000 0.8636
vt 2.0000 1.0000
vt -1.0000 1.0000
vt 2.0000 0.0000
vt -1.0000 1.0000
vt -1.0000 0.0000
vt 2.0000 0.0000
vt -1.0000 1.0000
vt -1.0000 0.0000
vt 1.0000 1.0000
vt 1.0000 1.0000
vt 1.0000 1.0000
vt 2.0000 0.8636
vt 2.0000 1.0000
vt 2.0000 1.0000
vn -1.0000 0.0000 0.0000
vn 0.0000 0.0000 -1.0000
vn 1.0000 0.0000 0.0000
vn 0.0000 0.0000 1.0000
vn 0.0000 -1.0000 0.0000
vn 0.0000 1.0000 0.0000
usemtl material_wood_bookshelf
s off
f 2/1/1 3/2/1 1/3/1
f 4/4/2 7/5/2 3/6/2
f 8/7/3 5/8/3 7/9/3
f 6/10/4 1/11/4 5/12/4
f 7/13/5 1/14/5 3/15/5
f 4/16/6 6/17/6 8/18/6
f 2/1/1 4/19/1 3/2/1
f 4/4/2 8/20/2 7/5/2
f 8/7/3 6/21/3 5/8/3
f 6/10/4 2/22/4 1/11/4
f 7/13/5 5/23/5 1/14/5
f 4/16/6 2/24/6 6/17/6
o Cube.006
v -52.500000 -2.500000 20.000000
v -52.500000 2.500000 20.000000
v -52.500000 -2.500000 -15.000000
v -52.500000 2.500000 -15.000000
v 52.500000 -2.500000 20.000000
v 52.500000 2.500000 20.000000
v 52.500000 -2.500000 -15.000000
v 52.500000 2.500000 -15.000000
vt 1.0000 0.0000
vt 0.0000 1.0000
vt 0.0000 0.0000
vt 1.0000 0.0000
vt 0.0000 1.0000
vt 0.0000 0.0000
vt 1.0000 0.0000
vt 0.0000 1.0000
vt 0.0000 0.0000
vt -1.0000 0.8636
vt 2.0000 1.0000
vt -1.0000 1.0000
vt 2.0000 0.0000
vt -1.0000 1.0000
vt -1.0000 0.0000
vt 2.0000 0.0000
vt -1.0000 1.0000
vt -1.0000 0.0000
vt 1.0000 1.0000
vt 1.0000 1.0000
vt 1.0000 1.0000
vt 2.0000 0.8636
vt 2.0000 1.0000
vt 2.0000 1.0000
vn -1.0000 0.0000 0.0000
vn 0.0000 0.0000 -1.0000
vn 1.0000 0.0000 0.0000
vn 0.0000 0.0000 1.0000
vn 0.0000 -1.0000 0.0000
vn 0.0000 1.0000 0.0000
usemtl material_wood_bookshelf
s off
f 10/25/7 11/26/7 9/27/7
f 12/28/8 15/29/8 11/30/8
f 16/31/9 13/32/9 15/33/9
f 14/34/10 9/35/10 13/36/10
f 15/37/11 9/38/11 11/39/11
f 12/40/12 14/41/12 16/42/12
f 10/25/7 12/43/7 11/26/7
f 12/28/8 16/44/8 15/29/8
f 16/31/9 14/45/9 13/32/9
f 14/34/10 10/46/10 9/35/10
f 15/37/11 13/47/11 9/38/11
f 12/40/12 10/48/12 14/41/12
o Cube.005_Cube.004
v -52.500000 -75.000000 20.000000
v -52.500000 -70.000000 20.000000
v -52.500000 -75.000000 -15.000000
v -52.500000 -70.000000 -15.000000
v 52.500000 -75.000000 20.000000
v 52.500000 -70.000000 20.000000
v 52.500000 -75.000000 -15.000000
v 52.500000 -70.000000 -15.000000
vt 1.0000 0.0000
vt 0.0000 1.0000
vt 0.0000 0.0000
vt 1.0000 0.0000
vt 0.0000 1.0000
vt 0.0000 0.0000
vt 1.0000 0.0000
vt 0.0000 1.0000
vt 0.0000 0.0000
vt -1.0000 0.8636
vt 2.0000 1.0000
vt -1.0000 1.0000
vt 2.0000 0.0000
vt -1.0000 1.0000
vt -1.0000 0.0000
vt 2.0000 0.0000
vt -1.0000 1.0000
vt -1.0000 0.0000
vt 1.0000 1.0000
vt 1.0000 1.0000
vt 1.0000 1.0000
vt 2.0000 0.8636
vt 2.0000 1.0000
vt 2.0000 1.0000
vn -1.0000 0.0000 0.0000
vn 0.0000 0.0000 -1.0000
vn 1.0000 0.0000 0.0000
vn 0.0000 0.0000 1.0000
vn 0.0000 -1.0000 0.0000
vn 0.0000 1.0000 0.0000
usemtl material_wood_bookshelf
s off
f 18/49/13 19/50/13 17/51/13
f 20/52/14 23/53/14 19/54/14
f 24/55/15 21/56/15 23/57/15
f 22/58/16 17/59/16 21/60/16
f 23/61/17 17/62/17 19/63/17
f 20/64/18 22/65/18 24/66/18
f 18/49/13 20/67/13 19/50/13
f 20/52/14 24/68/14 23/53/14
f 24/55/15 22/69/15 21/56/15
f 22/58/16 18/70/16 17/59/16
f 23/61/17 21/71/17 17/62/17
f 20/64/18 18/72/18 22/65/18
o Cube.004_Cube.003
v -52.500000 -38.750000 20.000000
v -52.500000 -33.750000 20.000000
v -52.500000 -38.750000 -15.000000
v -52.500000 -33.750000 -15.000000
v 52.500000 -38.750000 20.000000
v 52.500000 -33.750000 20.000000
v 52.500000 -38.750000 -15.000000
v 52.500000 -33.750000 -15.000000
vt 1.0000 0.0000
vt 0.0000 1.0000
vt 0.0000 0.0000
vt 1.0000 0.0000
vt 0.0000 1.0000
vt 0.0000 0.0000
vt 1.0000 0.0000
vt 0.0000 1.0000
vt 0.0000 0.0000
vt -1.0000 0.8636
vt 2.0000 1.0000
vt -1.0000 1.0000
vt 2.0000 0.0000
vt -1.0000 1.0000
vt -1.0000 0.0000
vt 2.0000 0.0000
vt -1.0000 1.0000
vt -1.0000 0.0000
vt 1.0000 1.0000
vt 1.0000 1.0000
vt 1.0000 1.0000
vt 2.0000 0.8636
vt 2.0000 1.0000
vt 2.0000 1.0000
vn -1.0000 0.0000 0.0000
vn 0.0000 0.0000 -1.0000
vn 1.0000 0.0000 0.0000
vn 0.0000 0.0000 1.0000
vn 0.0000 -1.0000 0.0000
vn 0.0000 1.0000 0.0000
usemtl material_wood_bookshelf
s off
f 26/73/19 27/74/19 25/75/19
f 28/76/20 31/77/20 27/78/20
f 32/79/21 29/80/21 31/81/21
f 30/82/22 25/83/22 29/84/22
f 31/85/23 25/86/23 27/87/23
f 28/88/24 30/89/24 32/90/24
f 26/73/19 28/91/19 27/74/19
f 28/76/20 32/92/20 31/77/20
f 32/79/21 30/93/21 29/80/21
f 30/82/22 26/94/22 25/83/22
f 31/85/23 29/95/23 25/86/23
f 28/88/24 26/96/24 30/89/24
o Cube.003_Cube.002
v -57.500000 70.000000 20.000000
v -57.500000 75.000000 20.000000
v -57.500000 70.000000 -15.000000
v -57.500000 75.000000 -15.000000
v 57.500000 70.000000 20.000000
v 57.500000 75.000000 20.000000
v 57.500000 70.000000 -15.000000
v 57.500000 75.000000 -15.000000
vt 1.0000 0.0000
vt 0.0000 1.0000
vt 0.0000 0.0000
vt 1.0000 0.0000
vt 0.0000 1.0000
vt 0.0000 0.0000
vt 1.0000 0.0000
vt 0.0000 1.0000
vt 0.0000 0.0000
vt -1.0952 0.8636
vt 2.1904 1.0000
vt -1.0952 1.0000
vt 2.1904 0.0000
vt -1.0952 1.0000
vt -1.0952 0.0000
vt 2.1904 0.0000
vt -1.0952 1.0000
vt -1.0952 0.0000
vt 1.0000 1.0000
vt 1.0000 1.0000
vt 1.0000 1.0000
vt 2.1904 0.8636
vt 2.1904 1.0000
vt 2.1904 1.0000
vn -1.0000 0.0000 0.0000
vn 0.0000 0.0000 -1.0000
vn 1.0000 0.0000 0.0000
vn 0.0000 0.0000 1.0000
vn 0.0000 -1.0000 0.0000
vn 0.0000 1.0000 0.0000
usemtl material_wood_bookshelf
s off
f 34/97/25 35/98/25 33/99/25
f 36/100/26 39/101/26 35/102/26
f 40/103/27 37/104/27 39/105/27
f 38/106/28 33/107/28 37/108/28
f 39/109/29 33/110/29 35/111/29
f 36/112/30 38/113/30 40/114/30
f 34/97/25 36/115/25 35/98/25
f 36/100/26 40/116/26 39/101/26
f 40/103/27 38/117/27 37/104/27
f 38/106/28 34/118/28 33/107/28
f 39/109/29 37/119/29 33/110/29
f 36/112/30 34/120/30 38/113/30
o Cube.002_Cube.001
v -57.500000 -75.000000 20.000000
v -57.500000 70.000000 20.000000
v -57.500000 -75.000000 -15.000000
v -57.500000 70.000000 -15.000000
v -52.500000 -75.000000 20.000000
v -52.500000 70.000000 20.000000
v -52.500000 -75.000000 -15.000000
v -52.500000 70.000000 -15.000000
vt 4.1429 0.0000
vt 0.0000 1.0000
vt 0.0000 0.0000
vt 1.0000 0.0000
vt 0.0000 1.0000
vt 0.0000 0.0000
vt 4.1429 0.0000
vt 0.0000 1.0000
vt 0.0000 0.0000
vt 4.1429 0.0000
vt 0.0000 0.0488
vt 0.0000 0.0000
vt 0.0977 0.0000
vt 0.0000 1.0000
vt 0.0000 1.0000
vt 0.0000 0.0000
vt 4.1429 1.0000
vt 1.0000 1.0000
vt 4.1429 1.0000
vt 4.1429 0.0488
vt 0.0977 1.0000
vt 1.0000 1.0000
vn -1.0000 0.0000 0.0000
vn 0.0000 0.0000 -1.0000
vn 1.0000 0.0000 0.0000
vn 0.0000 0.0000 1.0000
vn 0.0000 -1.0000 0.0000
vn 0.0000 1.0000 0.0000
usemtl material_wood_bookshelf
s off
f 42/121/31 43/122/31 41/123/31
f 44/124/32 47/125/32 43/126/32
f 48/127/33 45/128/33 47/129/33
f 46/130/34 41/131/34 45/132/34
f 47/133/35 41/134/35 43/126/35
f 44/124/36 46/135/36 48/136/36
f 42/121/31 44/137/31 43/122/31
f 44/124/32 48/138/32 47/125/32
f 48/127/33 46/139/33 45/128/33
f 46/130/34 42/140/34 41/131/34
f 47/133/35 45/141/35 41/134/35
f 44/124/36 42/142/36 46/135/36
o Cube.001_Cube.000
v 52.500000 -75.000000 20.000000
v 52.500000 70.000000 20.000000
v 52.500000 -75.000000 -15.000000
v 52.500000 70.000000 -15.000000
v 57.500000 -75.000000 20.000000
v 57.500000 70.000000 20.000000
v 57.500000 -75.000000 -15.000000
v 57.500000 70.000000 -15.000000
vt 4.1429 0.0000
vt 0.0000 1.0000
vt 0.0000 0.0000
vt 1.0000 0.0000
vt 0.0000 1.0000
vt 0.0000 0.0000
vt 4.1429 0.0000
vt 0.0000 1.0000
vt 0.0000 0.0000
vt 4.1429 0.0000
vt 0.0000 0.0488
vt 0.0000 0.0000
vt 0.0977 0.0000
vt 0.0000 1.0000
vt 0.0000 1.0000
vt 0.0000 0.0000
vt 4.1429 1.0000
vt 1.0000 1.0000
vt 4.1429 1.0000
vt 4.1429 0.0488
vt 0.0977 1.0000
vt 1.0000 1.0000
vn -1.0000 0.0000 0.0000
vn 0.0000 0.0000 -1.0000
vn 1.0000 0.0000 0.0000
vn 0.0000 0.0000 1.0000
vn 0.0000 -1.0000 0.0000
vn 0.0000 1.0000 0.0000
usemtl material_wood_bookshelf
s off
f 50/143/37 51/144/37 49/145/37
f 52/146/38 55/147/38 51/148/38
f 56/149/39 53/150/39 55/151/39
f 54/152/40 49/153/40 53/154/40
f 55/155/41 49/156/41 51/148/41
f 52/146/42 54/157/42 56/158/42
f 50/143/37 52/159/37 51/144/37
f 52/146/38 56/160/38 55/147/38
f 56/149/39 54/161/39 53/150/39
f 54/152/40 50/162/40 49/153/40
f 55/155/41 53/163/41 49/156/41
f 52/146/42 50/164/42 54/157/42
o Cube_Cube.005
v -57.500000 -75.000000 -15.000000
v -57.500000 75.000000 -15.000000
v -57.500000 -75.000000 -20.000000
v -57.500000 75.000000 -20.000000
v 57.500000 -75.000000 -15.000000
v 57.500000 75.000000 -15.000000
v 57.500000 -75.000000 -20.000000
v 57.500000 75.000000 -20.000000
vt 1.0000 0.0000
vt 0.0000 0.0488
vt 0.0000 0.0000
vt 1.3043 0.0000
vt 0.0000 1.0000
vt 0.0000 0.0000
vt 1.0000 0.0000
vt 0.0000 0.0488
vt 0.0000 0.0000
vt 1.3043 0.0000
vt 0.0000 1.0000
vt 0.0000 0.0000
vt 1.3043 0.0000
vt 0.0000 0.0567
vt 0.0000 0.0567
vt 0.0000 0.0000
vt 1.0000 0.0488
vt 1.3043 1.0000
vt 1.0000 0.0488
vt 1.3043 1.0000
vt 1.3043 0.0567
vt 1.3043 0.0567
vn -1.0000 0.0000 0.0000
vn 0.0000 0.0000 -1.0000
vn 1.0000 0.0000 0.0000
vn 0.0000 0.0000 1.0000
vn 0.0000 -1.0000 0.0000
vn 0.0000 1.0000 0.0000
usemtl material_wood_bookshelf
s off
f 58/165/43 59/166/43 57/167/43
f 60/168/44 63/169/44 59/170/44
f 64/171/45 61/172/45 63/173/45
f 62/174/46 57/175/46 61/176/46
f 63/177/47 57/178/47 59/170/47
f 60/168/48 62/179/48 64/180/48
f 58/165/43 60/181/43 59/166/43
f 60/168/44 64/182/44 63/169/44
f 64/171/45 62/183/45 61/172/45
f 62/174/46 58/184/46 57/175/46
f 63/177/47 61/185/47 57/178/47
f 60/168/48 58/186/48 62/179/48
