# Blender v2.78 (sub 0) OBJ File: 'Chair.blend'
# www.blender.org
mtllib Chair.mtl
o Cube.012_Cube.011
v -1.452000 1.819000 -1.513540
v -1.452000 2.181000 -1.513540
v -1.452000 1.819000 -1.752460
v -1.452000 2.181000 -1.752460
v 1.452000 1.819000 -1.513540
v 1.452000 2.181000 -1.513540
v 1.452000 1.819000 -1.752460
v 1.452000 2.181000 -1.752460
vt 1.0000 0.0000
vt 0.0000 1.0000
vt 0.0000 0.0000
vt 1.0000 0.0000
vt 0.0000 1.0000
vt 0.0000 0.0000
vt 1.0000 0.0000
vt 0.0000 1.0000
vt 0.0000 0.0000
vt 1.0000 0.0000
vt 0.0000 1.0000
vt 0.0000 0.0000
vt 1.0000 0.0000
vt 0.0000 1.0000
vt 0.0000 0.0000
vt 1.0000 1.0000
vt 1.0000 1.0000
vt 1.0000 1.0000
vt 1.0000 1.0000
vt 1.0000 1.0000
vn -1.0000 0.0000 0.0000
vn 0.0000 0.0000 -1.0000
vn 1.0000 0.0000 0.0000
vn 0.0000 0.0000 1.0000
vn 0.0000 -1.0000 0.0000
vn 0.0000 1.0000 0.0000
usemtl material_wood_chairleg
s off
f 2/1/1 3/2/1 1/3/1
f 4/4/2 7/5/2 3/6/2
f 8/7/3 5/8/3 7/9/3
f 6/10/4 1/11/4 5/12/4
f 7/13/5 1/11/5 3/6/5
f 4/4/6 6/14/6 8/15/6
f 2/1/1 4/16/1 3/2/1
f 4/4/2 8/17/2 7/5/2
f 8/7/3 6/18/3 5/8/3
f 6/10/4 2/19/4 1/11/4
f 7/13/5 5/20/5 1/11/5
f 4/4/6 2/19/6 6/14/6
o Cube.011_Cube.010
v -1.452000 3.819000 -1.513540
v -1.452000 4.181000 -1.513540
v -1.452000 3.819000 -1.752460
v -1.452000 4.181000 -1.752460
v 1.452000 3.819000 -1.513540
v 1.452000 4.181000 -1.513540
v 1.452000 3.819000 -1.752460
v 1.452000 4.181000 -1.752460
vt 1.0000 0.0000
vt 0.0000 1.0000
vt 0.0000 0.0000
vt 1.0000 0.0000
vt 0.0000 1.0000
vt 0.0000 0.0000
vt 1.0000 0.0000
vt 0.0000 1.0000
vt 0.0000 0.0000
vt 1.0000 0.0000
vt 0.0000 1.0000
vt 0.0000 0.0000
vt 1.0000 0.0000
vt 0.0000 1.0000
vt 0.0000 0.0000
vt 1.0000 1.0000
vt 1.0000 1.0000
vt 1.0000 1.0000
vt 1.0000 1.0000
vt 1.0000 1.0000
vn -1.0000 0.0000 0.0000
vn 0.0000 0.0000 -1.0000
vn 1.0000 0.0000 0.0000
vn 0.0000 0.0000 1.0000
vn 0.0000 -1.0000 0.0000
vn 0.0000 1.0000 0.0000
usemtl material_wood_chairleg
s off
f 10/21/7 11/22/7 9/23/7
f 12/24/8 15/25/8 11/26/8
f 16/27/9 13/28/9 15/29/9
f 14/30/10 9/31/10 13/32/10
f 15/33/11 9/31/11 11/26/11
f 12/24/12 14/34/12 16/35/12
f 10/21/7 12/36/7 11/22/7
f 12/24/8 16/37/8 15/25/8
f 16/27/9 14/38/9 13/28/9
f 14/30/10 10/39/10 9/31/10
f 15/33/11 13/40/11 9/31/11
f 12/24/12 10/39/12 14/34/12
o Cube.010_Cube.009
v -1.752500 -0.997000 1.452000
v -1.752500 -0.635000 1.452000
v -1.752500 -0.997000 -1.452000
v -1.752500 -0.635000 -1.452000
v -1.513500 -0.997000 1.452000
v -1.513500 -0.635000 1.452000
v -1.513500 -0.997000 -1.452000
v -1.513500 -0.635000 -1.452000
vt 1.0000 0.0000
vt 0.0000 1.0000
vt 0.0000 0.0000
vt 1.0000 0.0000
vt 0.0000 1.0000
vt 0.0000 0.0000
vt 1.0000 0.0000
vt 0.0000 1.0000
vt 0.0000 0.0000
vt 1.0000 0.0000
vt 0.0000 1.0000
vt 0.0000 0.0000
vt 1.0000 0.0000
vt 0.0000 1.0000
vt 0.0000 0.0000
vt 1.0000 1.0000
vt 1.0000 1.0000
vt 1.0000 1.0000
vt 1.0000 1.0000
vt 1.0000 1.0000
vn -1.0000 0.0000 0.0000
vn 0.0000 0.0000 -1.0000
vn 1.0000 0.0000 0.0000
vn 0.0000 0.0000 1.0000
vn 0.0000 -1.0000 0.0000
vn 0.0000 1.0000 0.0000
usemtl material_wood_chairleg
s off
f 18/41/13 19/42/13 17/43/13
f 20/44/14 23/45/14 19/46/14
f 24/47/15 21/48/15 23/49/15
f 22/50/16 17/51/16 21/52/16
f 23/53/17 17/51/17 19/46/17
f 20/44/18 22/54/18 24/55/18
f 18/41/13 20/56/13 19/42/13
f 20/44/14 24/57/14 23/45/14
f 24/47/15 22/58/15 21/48/15
f 22/50/16 18/59/16 17/51/16
f 23/53/17 21/60/17 17/51/17
f 20/44/18 18/59/18 22/54/18
o Cube.009_Cube.008
v 1.513500 -0.997000 1.452000
v 1.513500 -0.635000 1.452000
v 1.513500 -0.997000 -1.452000
v 1.513500 -0.635000 -1.452000
v 1.752500 -0.997000 1.452000
v 1.752500 -0.635000 1.452000
v 1.752500 -0.997000 -1.452000
v 1.752500 -0.635000 -1.452000
vt 1.0000 0.0000
vt 0.0000 1.0000
vt 0.0000 0.0000
vt 1.0000 0.0000
vt 0.0000 1.0000
vt 0.0000 0.0000
vt 1.0000 0.0000
vt 0.0000 1.0000
vt 0.0000 0.0000
vt 1.0000 0.0000
vt 0.0000 1.0000
vt 0.0000 0.0000
vt 1.0000 0.0000
vt 0.0000 1.0000
vt 0.0000 0.0000
vt 1.0000 1.0000
vt 1.0000 1.0000
vt 1.0000 1.0000
vt 1.0000 1.0000
vt 1.0000 1.0000
vn -1.0000 0.0000 0.0000
vn 0.0000 0.0000 -1.0000
vn 1.0000 0.0000 0.0000
vn 0.0000 0.0000 1.0000
vn 0.0000 -1.0000 0.0000
vn 0.0000 1.0000 0.0000
usemtl material_wood_chairleg
s off
f 26/61/19 27/62/19 25/63/19
f 28/64/20 31/65/20 27/66/20
f 32/67/21 29/68/21 31/69/21
f 30/70/22 25/71/22 29/72/22
f 31/73/23 25/71/23 27/66/23
f 28/64/24 30/74/24 32/75/24
f 26/61/19 28/76/19 27/62/19
f 28/64/20 32/77/20 31/65/20
f 32/67/21 30/78/21 29/68/21
f 30/70/22 26/79/22 25/71/22
f 31/73/23 29/80/23 25/71/23
f 28/64/24 26/79/24 30/74/24
o Cube.008_Cube.007
v -1.452000 -0.997000 -1.513540
v -1.452000 -0.635000 -1.513540
v -1.452000 -0.997000 -1.752460
v -1.452000 -0.635000 -1.752460
v 1.452000 -0.997000 -1.513540
v 1.452000 -0.635000 -1.513540
v 1.452000 -0.997000 -1.752460
v 1.452000 -0.635000 -1.752460
vt 1.0000 0.0000
vt 0.0000 1.0000
vt 0.0000 0.0000
vt 1.0000 0.0000
vt 0.0000 1.0000
vt 0.0000 0.0000
vt 1.0000 0.0000
vt 0.0000 1.0000
vt 0.0000 0.0000
vt 1.0000 0.0000
vt 0.0000 1.0000
vt 0.0000 0.0000
vt 1.0000 0.0000
vt 0.0000 1.0000
vt 0.0000 0.0000
vt 1.0000 1.0000
vt 1.0000 1.0000
vt 1.0000 1.0000
vt 1.0000 1.0000
vt 1.0000 1.0000
vn -1.0000 0.0000 0.0000
vn 0.0000 0.0000 -1.0000
vn 1.0000 0.0000 0.0000
vn 0.0000 0.0000 1.0000
vn 0.0000 -1.0000 0.0000
vn 0.0000 1.0000 0.0000
usemtl material_wood_chairleg
s off
f 34/81/25 35/82/25 33/83/25
f 36/84/26 39/85/26 35/86/26
f 40/87/27 37/88/27 39/89/27
f 38/90/28 33/91/28 37/92/28
f 39/93/29 33/91/29 35/86/29
f 36/84/30 38/94/30 40/95/30
f 34/81/25 36/96/25 35/82/25
f 36/84/26 40/97/26 39/85/26
f 40/87/27 38/98/27 37/88/27
f 38/90/28 34/99/28 33/91/28
f 39/93/29 37/100/29 33/91/29
f 36/84/30 34/99/30 38/94/30
o Cube.007_Cube.006
v -1.452000 -0.997000 1.752460
v -1.452000 -0.635000 1.752460
v -1.452000 -0.997000 1.513540
v -1.452000 -0.635000 1.513540
v 1.452000 -0.997000 1.752460
v 1.452000 -0.635000 1.752460
v 1.452000 -0.997000 1.513540
v 1.452000 -0.635000 1.513540
vt 1.0000 0.0000
vt 0.0000 1.0000
vt 0.0000 0.0000
vt 1.0000 0.0000
vt 0.0000 1.0000
vt 0.0000 0.0000
vt 1.0000 0.0000
vt 0.0000 1.0000
vt 0.0000 0.0000
vt 1.0000 0.0000
vt 0.0000 1.0000
vt 0.0000 0.0000
vt 1.0000 0.0000
vt 0.0000 1.0000
vt 0.0000 0.0000
vt 1.0000 1.0000
vt 1.0000 1.0000
vt 1.0000 1.0000
vt 1.0000 1.0000
vt 1.0000 1.0000
vn -1.0000 0.0000 0.0000
vn 0.0000 0.0000 -1.0000
vn 1.0000 0.0000 0.0000
vn 0.0000 0.0000 1.0000
vn 0.0000 -1.0000 0.0000
vn 0.0000 1.0000 0.0000
usemtl material_wood_chairleg
s off
f 42/101/31 43/102/31 41/103/31
f 44/104/32 47/105/32 43/106/32
f 48/107/33 45/108/33 47/109/33
f 46/110/34 41/111/34 45/112/34
f 47/113/35 41/111/35 43/106/35
f 44/104/36 46/114/36 48/115/36
f 42/101/31 44/116/31 43/102/31
f 44/104/32 48/117/32 47/105/32
f 48/107/33 46/118/33 45/108/33
f 46/110/34 42/119/34 41/111/34
f 47/113/35 45/120/35 41/111/35
f 44/104/36 42/119/36 46/114/36
o Cube.006_Cube.004
v -1.814000 -0.635000 -1.452000
v -1.814000 4.534900 -1.452000
v -1.814000 -0.635000 -1.814000
v -1.814000 4.534900 -1.814000
v -1.452000 -0.635000 -1.452000
v -1.452000 4.534900 -1.452000
v -1.452000 -0.635000 -1.814000
v -1.452000 4.534900 -1.814000
vt 0.0000 0.0000
vt 1.0000 1.0000
vt 0.0000 1.0000
vt 0.0000 0.0000
vt 1.0000 1.0000
vt 0.0000 1.0000
vt 0.0000 0.0000
vt 1.0000 1.0000
vt 0.0000 1.0000
vt 0.0000 0.0000
vt 1.0000 1.0000
vt 0.0000 1.0000
vt 1.0000 0.0000
vt 0.0000 0.0000
vt 1.0000 0.0000
vt 0.0000 1.0000
vt 1.0000 0.0000
vt 1.0000 0.0000
vt 1.0000 0.0000
vt 1.0000 1.0000
vn -1.0000 0.0000 0.0000
vn 0.0000 0.0000 -1.0000
vn 1.0000 0.0000 0.0000
vn 0.0000 0.0000 1.0000
vn 0.0000 -1.0000 0.0000
vn 0.0000 1.0000 0.0000
usemtl material_wood_chairleg
s off
f 50/121/37 51/122/37 49/123/37
f 52/124/38 55/125/38 51/126/38
f 56/127/39 53/128/39 55/129/39
f 54/130/40 49/131/40 53/132/40
f 55/133/41 49/123/41 51/134/41
f 52/135/42 54/136/42 56/127/42
f 50/121/37 52/135/37 51/122/37
f 52/124/38 56/137/38 55/125/38
f 56/127/39 54/138/39 53/128/39
f 54/130/40 50/139/40 49/131/40
f 55/133/41 53/128/41 49/123/41
f 52/135/42 50/140/42 54/136/42
o Cube.005_Cube.003
v 1.452000 -0.635000 -1.452000
v 1.452000 4.534900 -1.452000
v 1.452000 -0.635000 -1.814000
v 1.452000 4.534900 -1.814000
v 1.814000 -0.635000 -1.452000
v 1.814000 4.534900 -1.452000
v 1.814000 -0.635000 -1.814000
v 1.814000 4.534900 -1.814000
vt 0.0000 0.0000
vt 1.0000 1.0000
vt 0.0000 1.0000
vt 0.0000 0.0000
vt 1.0000 1.0000
vt 0.0000 1.0000
vt 0.0000 0.0000
vt 1.0000 1.0000
vt 0.0000 1.0000
vt 0.0000 0.0000
vt 1.0000 1.0000
vt 0.0000 1.0000
vt 1.0000 0.0000
vt 0.0000 0.0000
vt 1.0000 0.0000
vt 0.0000 1.0000
vt 1.0000 0.0000
vt 1.0000 0.0000
vt 1.0000 0.0000
vt 1.0000 1.0000
vn -1.0000 0.0000 0.0000
vn 0.0000 0.0000 -1.0000
vn 1.0000 0.0000 0.0000
vn 0.0000 0.0000 1.0000
vn 0.0000 -1.0000 0.0000
vn 0.0000 1.0000 0.0000
usemtl material_wood_chairleg
s off
f 58/141/43 59/142/43 57/143/43
f 60/144/44 63/145/44 59/146/44
f 64/147/45 61/148/45 63/149/45
f 62/150/46 57/151/46 61/152/46
f 63/153/47 57/143/47 59/154/47
f 60/155/48 62/156/48 64/147/48
f 58/141/43 60/155/43 59/142/43
f 60/144/44 64/157/44 63/145/44
f 64/147/45 62/158/45 61/148/45
f 62/150/46 58/159/46 57/151/46
f 63/153/47 61/148/47 57/143/47
f 60/155/48 58/160/48 62/156/48
o Cube.003_Cube.002
v -1.814000 -4.535000 -1.452000
v -1.814000 -0.635000 -1.452000
v -1.814000 -4.535000 -1.814000
v -1.814000 -0.635000 -1.814000
v -1.452000 -4.535000 -1.452000
v -1.452000 -0.635000 -1.452000
v -1.452000 -4.535000 -1.814000
v -1.452000 -0.635000 -1.814000
vt 0.0000 1.0000
vt 1.0000 0.0000
vt 1.0000 1.0000
vt 0.0000 0.0000
vt 1.0000 1.0000
vt 0.0000 1.0000
vt 0.0000 0.0000
vt 1.0000 1.0000
vt 0.0000 1.0000
vt 0.0000 0.0000
vt 1.0000 1.0000
vt 0.0000 1.0000
vt 1.0000 0.0000
vt 0.0000 0.0000
vt 0.0000 1.0000
vt 0.0000 0.0000
vt 1.0000 0.0000
vt 1.0000 0.0000
vt 1.0000 0.0000
vt 1.0000 1.0000
vn -1.0000 0.0000 0.0000
vn 0.0000 0.0000 -1.0000
vn 1.0000 0.0000 0.0000
vn 0.0000 0.0000 1.0000
vn 0.0000 -1.0000 0.0000
vn 0.0000 1.0000 0.0000
usemtl material_wood_chairleg
s off
f 65/161/49 68/162/49 67/163/49
f 68/164/50 71/165/50 67/166/50
f 72/167/51 69/168/51 71/169/51
f 70/170/52 65/171/52 69/172/52
f 71/173/53 65/161/53 67/174/53
f 68/162/54 70/175/54 72/167/54
f 65/161/49 66/176/49 68/162/49
f 68/164/50 72/177/50 71/165/50
f 72/167/51 70/178/51 69/168/51
f 70/170/52 66/179/52 65/171/52
f 71/173/53 69/168/53 65/161/53
f 68/162/54 66/180/54 70/175/54
o Cube.002_Cube.001
v 1.452000 -4.535000 -1.452000
v 1.452000 -0.635000 -1.452000
v 1.452000 -4.535000 -1.814000
v 1.452000 -0.635000 -1.814000
v 1.814000 -4.535000 -1.452000
v 1.814000 -0.635000 -1.452000
v 1.814000 -4.535000 -1.814000
v 1.814000 -0.635000 -1.814000
vt 0.0000 0.0000
vt 1.0000 1.0000
vt 0.0000 1.0000
vt 0.0000 0.0000
vt 1.0000 1.0000
vt 0.0000 1.0000
vt 0.0000 0.0000
vt 1.0000 1.0000
vt 0.0000 1.0000
vt 0.0000 0.0000
vt 1.0000 1.0000
vt 0.0000 1.0000
vt 1.0000 0.0000
vt 0.0000 0.0000
vt 1.0000 0.0000
vt 0.0000 1.0000
vt 1.0000 0.0000
vt 1.0000 0.0000
vt 1.0000 0.0000
vt 1.0000 1.0000
vn -1.0000 0.0000 0.0000
vn 0.0000 0.0000 -1.0000
vn 1.0000 0.0000 0.0000
vn 0.0000 0.0000 1.0000
vn 0.0000 -1.0000 0.0000
vn 0.0000 1.0000 0.0000
usemtl material_wood_chairleg
s off
f 74/181/55 75/182/55 73/183/55
f 76/184/56 79/185/56 75/186/56
f 80/187/57 77/188/57 79/189/57
f 78/190/58 73/191/58 77/192/58
f 79/193/59 73/183/59 75/194/59
f 76/195/60 78/196/60 80/187/60
f 74/181/55 76/195/55 75/182/55
f 76/184/56 80/197/56 79/185/56
f 80/187/57 78/198/57 77/188/57
f 78/190/58 74/199/58 73/191/58
f 79/193/59 77/188/59 73/183/59
f 76/195/60 74/200/60 78/196/60
o Cube.001_Cube.000
v 1.452000 -4.535000 1.814000
v 1.452000 -0.635000 1.814000
v 1.452000 -4.535000 1.452000
v 1.452000 -0.635000 1.452000
v 1.814000 -4.535000 1.814000
v 1.814000 -0.635000 1.814000
v 1.814000 -4.535000 1.452000
v 1.814000 -0.635000 1.452000
vt 0.0000 0.0000
vt 1.0000 1.0000
vt 0.0000 1.0000
vt 0.0000 0.0000
vt 1.0000 1.0000
vt 0.0000 1.0000
vt 0.0000 0.0000
vt 1.0000 1.0000
vt 0.0000 1.0000
vt 0.0000 0.0000
vt 1.0000 1.0000
vt 0.0000 1.0000
vt 1.0000 0.0000
vt 0.0000 0.0000
vt 1.0000 0.0000
vt 0.0000 1.0000
vt 1.0000 0.0000
vt 1.0000 0.0000
vt 1.0000 0.0000
vt 1.0000 1.0000
vn -1.0000 0.0000 0.0000
vn 0.0000 0.0000 -1.0000
vn 1.0000 0.0000 0.0000
vn 0.0000 0.0000 1.0000
vn 0.0000 -1.0000 0.0000
vn 0.0000 1.0000 0.0000
usemtl material_wood_chairleg
s off
f 82/201/61 83/202/61 81/203/61
f 84/204/62 87/205/62 83/206/62
f 88/207/63 85/208/63 87/209/63
f 86/210/64 81/211/64 85/212/64
f 87/213/65 81/203/65 83/214/65
f 84/215/66 86/216/66 88/207/66
f 82/201/61 84/215/61 83/202/61
f 84/204/62 88/217/62 87/205/62
f 88/207/63 86/218/63 85/208/63
f 86/210/64 82/219/64 81/211/64
f 87/213/65 85/208/65 81/203/65
f 84/215/66 82/220/66 86/216/66
o Cube_Cube.005
v -1.814000 -4.535000 1.814000
v -1.814000 -0.635000 1.814000
v -1.814000 -4.535000 1.452000
v -1.814000 -0.635000 1.452000
v -1.452000 -4.535000 1.814000
v -1.452000 -0.635000 1.814000
v -1.452000 -4.535000 1.452000
v -1.452000 -0.635000 1.452000
vt 0.0000 0.0000
vt 1.0000 1.0000
vt 0.0000 1.0000
vt 0.0000 0.0000
vt 1.0000 1.0000
vt 0.0000 1.0000
vt 0.0000 0.0000
vt 1.0000 1.0000
vt 0.0000 1.0000
vt 0.0000 0.0000
vt 1.0000 1.0000
vt 0.0000 1.0000
vt 1.0000 0.0000
vt 0.0000 0.0000
vt 1.0000 0.0000
vt 0.0000 1.0000
vt 1.0000 0.0000
vt 1.0000 0.0000
vt 1.0000 0.0000
vt 1.0000 1.0000
vn -1.0000 0.0000 0.0000
vn 0.0000 0.0000 -1.0000
vn 1.0000 0.0000 0.0000
vn 0.0000 0.0000 1.0000
vn 0.0000 -1.0000 0.0000
vn 0.0000 1.0000 0.0000
usemtl material_wood_chairleg
s off
f 90/221/67 91/222/67 89/223/67
f 92/224/68 95/225/68 91/226/68
f 96/227/69 93/228/69 95/229/69
f 94/230/70 89/231/70 93/232/70
f 95/233/71 89/223/71 91/234/71
f 92/235/72 94/236/72 96/227/72
f 90/221/67 92/235/67 91/222/67
f 92/224/68 96/237/68 95/225/68
f 96/227/69 94/238/69 93/228/69
f 94/230/70 90/239/70 89/231/70
f 95/233/71 93/228/71 89/223/71
f 92/235/72 90/240/72 94/236/72
o Cube.004_Cube
v -1.452000 -0.637500 -1.452000
v -1.452000 -0.492500 -1.452000
v -1.452000 -0.637500 -1.814000
v -1.452000 -0.492500 -1.814000
v 1.452000 -0.637500 -1.452000
v 1.452000 -0.492500 -1.452000
v 1.452000 -0.637500 -1.814000
v 1.452000 -0.492500 -1.814000
v -1.814000 -0.637500 1.814000
v -1.814000 -0.492500 1.814000
v -1.814000 -0.637500 -1.452000
v -1.814000 -0.492500 -1.452000
v 1.814000 -0.637500 1.814000
v 1.814000 -0.492500 1.814000
v 1.814000 -0.637500 -1.452000
v 1.814000 -0.492500 -1.452000
vt 0.0000 0.0000
vt 0.9002 0.0488
vt 0.0000 0.0488
vt 0.9999 0.9002
vt 0.0000 1.0000
vt 0.0000 0.9002
vt 0.9999 0.9002
vt 0.0000 1.0000
vt 0.0000 0.9002
vt 0.0000 0.0000
vt 0.9002 0.0488
vt 0.0000 0.0488
vt 0.0000 0.0000
vt 0.9002 0.0488
vt 0.0000 0.0488
vt 0.0000 0.0000
vt 0.9002 0.0488
vt 0.0000 0.0488
vt 1.0000 0.0001
vt 0.0000 0.9002
vt 0.0000 0.0001
vt 1.0000 0.0001
vt 0.0000 0.9002
vt 0.0000 0.0001
vt 0.9002 0.0000
vt 0.9999 1.0000
vt 0.9999 1.0000
vt 0.9002 0.0000
vt 0.9002 0.0000
vt 0.9002 0.0000
vt 1.0000 0.9002
vt 1.0000 0.9002
vn 0.0000 0.0000 -1.0000
vn 0.0000 -1.0000 0.0000
vn 0.0000 1.0000 0.0000
vn -1.0000 0.0000 0.0000
vn 1.0000 0.0000 0.0000
vn 0.0000 0.0000 1.0000
usemtl material_wood_chair
s off
f 100/241/73 103/242/73 99/243/73
f 103/244/74 97/245/74 99/246/74
f 100/247/75 102/248/75 104/249/75
f 106/250/76 107/251/76 105/252/76
f 112/253/77 109/254/77 111/255/77
f 110/256/78 105/257/78 109/258/78
f 111/259/74 105/260/74 107/261/74
f 108/262/75 110/263/75 112/264/75
f 100/241/73 104/265/73 103/242/73
f 103/244/74 101/266/74 97/245/74
f 100/247/75 98/267/75 102/248/75
f 106/250/76 108/268/76 107/251/76
f 112/253/77 110/269/77 109/254/77
f 110/256/78 106/270/78 105/257/78
f 111/259/74 109/271/74 105/260/74
f 108/262/75 106/272/75 110/263/75
