# Blender v2.78 (sub 0) OBJ File: 'Chest.blend'
# www.blender.org
mtllib Chest.mtl
o Cube_Cube.005
v -3.125000 -1.125000 1.562500
v -3.125000 1.125000 1.562500
v -3.125000 -1.125000 -1.562500
v -3.125000 1.125000 -1.562500
v 3.125000 -1.125000 1.562500
v 3.125000 1.125000 1.562500
v 3.125000 -1.125000 -1.562500
v 3.125000 1.125000 -1.562500
vt 1.0000 0.0000
vt 0.0000 1.0000
vt 0.0000 0.0000
vt 1.0000 0.0000
vt 0.0000 1.0000
vt 0.0000 0.0000
vt 1.0000 0.0000
vt 0.0000 1.0000
vt 0.0000 0.0000
vt 1.0000 0.0000
vt 0.0000 1.0000
vt 0.0000 0.0000
vt 1.0000 1.0000
vt 0.0000 0.0000
vt 1.0000 1.0000
vt 0.0000 1.0000
vt 1.0000 1.0000
vt 1.0000 1.0000
vt 1.0000 1.0000
vt 1.0000 0.0000
vn -1.0000 0.0000 0.0000
vn 0.0000 0.0000 -1.0000
vn 1.0000 0.0000 0.0000
vn 0.0000 0.0000 1.0000
vn 0.0000 -1.0000 0.0000
vn 0.0000 1.0000 0.0000
usemtl material_wood_boards
s off
f 2/1/1 3/2/1 1/3/1
f 4/4/2 7/5/2 3/6/2
f 8/7/3 5/8/3 7/9/3
f 6/10/4 1/11/4 5/12/4
f 7/9/5 1/13/5 3/2/5
f 4/14/6 6/15/6 8/16/6
f 2/1/1 4/17/1 3/2/1
f 4/4/2 8/18/2 7/5/2
f 8/7/3 6/15/3 5/8/3
f 6/10/4 2/19/4 1/11/4
f 7/9/5 5/20/5 1/13/5
f 4/14/6 2/1/6 6/15/6
