# Blender v2.78 (sub 0) OBJ File: 'Counter.blend'
# www.blender.org
mtllib Counter.mtl
o Cube.001_Cube.000
v -1.875000 1.500000 1.750000
v -1.875000 1.750000 1.750000
v -1.875000 1.500000 -1.375000
v -1.875000 1.750000 -1.375000
v 1.875000 1.500000 1.750000
v 1.875000 1.750000 1.750000
v 1.875000 1.500000 -1.375000
v 1.875000 1.750000 -1.375000
vt -0.4375 0.4375
vt 0.5625 0.5625
vt -0.4375 0.5625
vt -0.4375 0.4375
vt 0.5625 0.5625
vt -0.4375 0.5625
vt -0.4375 0.4375
vt 0.5625 0.5625
vt -0.4375 0.5625
vt -0.4375 0.4375
vt 0.5625 0.5625
vt -0.4375 0.5625
vt 1.0000 0.0000
vt 0.0000 1.0000
vt 0.0000 0.0000
vt 1.0000 0.0000
vt 0.0000 1.0000
vt 0.0000 0.0000
vt 0.5625 0.4375
vt 0.5625 0.4375
vt 0.5625 0.4375
vt 0.5625 0.4375
vt 1.0000 1.0000
vt 1.0000 1.0000
vn -1.0000 0.0000 0.0000
vn 0.0000 0.0000 -1.0000
vn 1.0000 0.0000 0.0000
vn 0.0000 0.0000 1.0000
vn 0.0000 -1.0000 0.0000
vn 0.0000 1.0000 0.0000
usemtl material_wood_countertop
s off
f 2/1/1 3/2/1 1/3/1
f 4/4/2 7/5/2 3/6/2
f 8/7/3 5/8/3 7/9/3
f 6/10/4 1/11/4 5/12/4
f 7/13/5 1/14/5 3/15/5
f 4/16/6 6/17/6 8/18/6
f 2/1/1 4/19/1 3/2/1
f 4/4/2 8/20/2 7/5/2
f 8/7/3 6/21/3 5/8/3
f 6/10/4 2/22/4 1/11/4
f 7/13/5 5/23/5 1/14/5
f 4/16/6 2/24/6 6/17/6
o Cube_Cube.005
v -1.875000 -1.500000 1.375000
v -1.875000 1.500000 1.375000
v -1.875000 -1.500000 -1.375000
v -1.875000 1.500000 -1.375000
v 1.875000 -1.500000 1.375000
v 1.875000 1.500000 1.375000
v 1.875000 -1.500000 -1.375000
v 1.875000 1.500000 -1.375000
vt 1.0000 0.0000
vt 0.0000 1.0000
vt 0.0000 0.0000
vt 1.0000 0.0000
vt 0.0000 1.0000
vt 0.0000 0.0000
vt 1.0000 0.0000
vt 0.0000 1.0000
vt 0.0000 0.0000
vt 1.0000 0.0000
vt 0.0000 1.0000
vt 0.0000 0.0000
vt 1.0000 0.0000
vt 0.0000 1.0000
vt 0.0000 0.0000
vt 1.0000 1.0000
vt 1.0000 1.0000
vt 1.0000 1.0000
vt 1.0000 1.0000
vt 1.0000 1.0000
vn -1.0000 0.0000 0.0000
vn 0.0000 0.0000 -1.0000
vn 1.0000 0.0000 0.0000
vn 0.0000 0.0000 1.0000
vn 0.0000 -1.0000 0.0000
vn 0.0000 1.0000 0.0000
usemtl material_wood_boards
s off
f 10/25/7 11/26/7 9/27/7
f 12/28/8 15/29/8 11/30/8
f 16/31/9 13/32/9 15/33/9
f 14/34/10 9/35/10 13/36/10
f 15/37/11 9/35/11 11/30/11
f 12/28/12 14/38/12 16/39/12
f 10/25/7 12/40/7 11/26/7
f 12/28/8 16/41/8 15/29/8
f 16/31/9 14/42/9 13/32/9
f 14/34/10 10/43/10 9/35/10
f 15/37/11 13/44/11 9/35/11
f 12/28/12 10/43/12 14/38/12
