# Blender v2.78 (sub 0) OBJ File: 'Fireplace.blend'
# www.blender.org
mtllib Fireplace.mtl
o Cylinder.001
v -1.250000 -5.800000 -1.500000
v 1.250000 -5.800000 -1.500000
v -1.250000 -5.954509 -1.475528
v 1.250000 -5.954509 -1.475528
v -1.250000 -6.093893 -1.404508
v 1.250000 -6.093893 -1.404508
v -1.250000 -6.204509 -1.293893
v 1.250000 -6.204509 -1.293893
v -1.250000 -6.275528 -1.154508
v 1.250000 -6.275528 -1.154508
v -1.250000 -6.300000 -1.000000
v 1.250000 -6.300000 -1.000000
v -1.250000 -6.275528 -0.845491
v 1.250000 -6.275528 -0.845491
v -1.250000 -6.204509 -0.706107
v 1.250000 -6.204509 -0.706107
v -1.250000 -6.093893 -0.595491
v 1.250000 -6.093893 -0.595491
v -1.250000 -5.954508 -0.524472
v 1.250000 -5.954509 -0.524472
v -1.250000 -5.800000 -0.500000
v 1.250000 -5.800000 -0.500000
v -1.250000 -5.645492 -0.524472
v 1.250000 -5.645492 -0.524472
v -1.250000 -5.506107 -0.595492
v 1.250000 -5.506107 -0.595492
v -1.250000 -5.395492 -0.706108
v 1.250000 -5.395492 -0.706108
v -1.250000 -5.324472 -0.845492
v 1.250000 -5.324472 -0.845492
v -1.250000 -5.300000 -1.000000
v 1.250000 -5.300000 -1.000000
v -1.250000 -5.324472 -1.154509
v 1.250000 -5.324472 -1.154509
v -1.250000 -5.395492 -1.293893
v 1.250000 -5.395492 -1.293893
v -1.250000 -5.506108 -1.404509
v 1.250000 -5.506108 -1.404509
v -1.250000 -5.645493 -1.475528
v 1.250000 -5.645493 -1.475528
vt 0.5154 0.4797
vt 0.4846 0.5104
vt 0.4846 0.4797
vt 0.5154 0.4797
vt 0.4846 0.5104
vt 0.4846 0.4797
vt 0.5154 0.4797
vt 0.4846 0.5104
vt 0.4846 0.4797
vt 0.5154 0.4797
vt 0.4846 0.5104
vt 0.4846 0.4797
vt 0.5154 0.4797
vt 0.4846 0.5104
vt 0.4846 0.4797
vt 0.5154 0.4797
vt 0.4846 0.5104
vt 0.4846 0.4797
vt 0.5154 0.4797
vt 0.4846 0.5104
vt 0.4846 0.4797
vt 0.5154 0.4797
vt 0.4846 0.5104
vt 0.4846 0.4797
vt 0.5154 0.4797
vt 0.4846 0.5104
vt 0.4846 0.4797
vt 0.5154 0.4797
vt 0.4846 0.5104
vt 0.4846 0.4797
vt 0.5154 0.4797
vt 0.4846 0.5104
vt 0.4846 0.4797
vt 0.5154 0.4797
vt 0.4846 0.5104
vt 0.4846 0.4797
vt 0.5154 0.4797
vt 0.4846 0.5104
vt 0.4846 0.4797
vt 0.5154 0.4797
vt 0.4846 0.5104
vt 0.4846 0.4797
vt 0.5154 0.4797
vt 0.4846 0.5104
vt 0.4846 0.4797
vt 0.5154 0.4797
vt 0.4846 0.5104
vt 0.4846 0.4797
vt 0.5154 0.4797
vt 0.4846 0.5104
vt 0.4846 0.4797
vt 0.5154 0.4797
vt 0.4846 0.5104
vt 0.4846 0.4797
vt 0.5124 0.4860
vt 0.4876 0.5041
vt 0.4953 0.5097
vt 0.5154 0.4797
vt 0.4846 0.5104
vt 0.4846 0.4797
vt 0.5154 0.4797
vt 0.4846 0.5104
vt 0.4846 0.4797
vt 0.4953 0.4804
vt 0.4846 0.4950
vt 0.4953 0.5097
vt 0.5154 0.5104
vt 0.5154 0.5104
vt 0.5154 0.5104
vt 0.5154 0.5104
vt 0.5154 0.5104
vt 0.5154 0.5104
vt 0.5154 0.5104
vt 0.5154 0.5104
vt 0.5154 0.5104
vt 0.5154 0.5104
vt 0.5154 0.5104
vt 0.5154 0.5104
vt 0.5154 0.5104
vt 0.5154 0.5104
vt 0.5154 0.5104
vt 0.5154 0.5104
vt 0.5154 0.5104
vt 0.5154 0.5104
vt 0.5000 0.5104
vt 0.5124 0.5041
vt 0.5047 0.5097
vt 0.5090 0.5075
vt 0.5146 0.4998
vt 0.5154 0.4950
vt 0.5146 0.4903
vt 0.5090 0.4826
vt 0.5047 0.4804
vt 0.5000 0.4797
vt 0.4953 0.4804
vt 0.4910 0.4826
vt 0.4846 0.4950
vt 0.4876 0.4860
vt 0.4854 0.4903
vt 0.4854 0.4998
vt 0.4910 0.5075
vt 0.5154 0.5104
vt 0.5154 0.5104
vt 0.5000 0.5104
vt 0.5047 0.5097
vt 0.5090 0.5075
vt 0.5124 0.5041
vt 0.5146 0.4998
vt 0.5154 0.4950
vt 0.5146 0.4903
vt 0.5124 0.4860
vt 0.5090 0.4826
vt 0.5047 0.4804
vt 0.5000 0.4797
vt 0.4910 0.4826
vt 0.4876 0.4860
vt 0.4854 0.4903
vt 0.4854 0.4998
vt 0.4876 0.5041
vt 0.4910 0.5075
vn 0.0000 -0.1564 -0.9877
vn 0.0000 -0.4540 -0.8910
vn -0.0000 -0.7071 -0.7071
vn 0.0000 -0.8910 -0.4540
vn 0.0000 -0.9877 -0.1564
vn 0.0000 -0.9877 0.1564
vn 0.0000 -0.8910 0.4540
vn 0.0000 -0.7071 0.7071
vn -0.0000 -0.4540 0.8910
vn -0.0000 -0.1564 0.9877
vn 0.0000 0.1564 0.9877
vn 0.0000 0.4540 0.8910
vn 0.0000 0.7071 0.7071
vn 0.0000 0.8910 0.4540
vn 0.0000 0.9877 0.1564
vn 0.0000 0.9877 -0.1564
vn 0.0000 0.8910 -0.4540
vn 0.0000 0.7071 -0.7071
vn 1.0000 -0.0000 0.0000
vn 0.0000 0.4540 -0.8910
vn 0.0000 0.1564 -0.9877
vn -1.0000 0.0000 0.0000
usemtl material_woodwall
s off
f 2/1/1 3/2/1 1/3/1
f 4/4/2 5/5/2 3/6/2
f 6/7/3 7/8/3 5/9/3
f 8/10/4 9/11/4 7/12/4
f 10/13/5 11/14/5 9/15/5
f 12/16/6 13/17/6 11/18/6
f 14/19/7 15/20/7 13/21/7
f 16/22/8 17/23/8 15/24/8
f 18/25/9 19/26/9 17/27/9
f 20/28/10 21/29/10 19/30/10
f 22/31/11 23/32/11 21/33/11
f 24/34/12 25/35/12 23/36/12
f 26/37/13 27/38/13 25/39/13
f 28/40/14 29/41/14 27/42/14
f 30/43/15 31/44/15 29/45/15
f 32/46/16 33/47/16 31/48/16
f 34/49/17 35/50/17 33/51/17
f 36/52/18 37/53/18 35/54/18
f 30/55/19 10/56/19 6/57/19
f 38/58/20 39/59/20 37/60/20
f 40/61/21 1/62/21 39/63/21
f 23/64/22 31/65/22 39/66/22
f 2/1/1 4/67/1 3/2/1
f 4/4/2 6/68/2 5/5/2
f 6/7/3 8/69/3 7/8/3
f 8/10/4 10/70/4 9/11/4
f 10/13/5 12/71/5 11/14/5
f 12/16/6 14/72/6 13/17/6
f 14/19/7 16/73/7 15/20/7
f 16/22/8 18/74/8 17/23/8
f 18/25/9 20/75/9 19/26/9
f 20/28/10 22/76/10 21/29/10
f 22/31/11 24/77/11 23/32/11
f 24/34/12 26/78/12 25/35/12
f 26/37/13 28/79/13 27/38/13
f 28/40/14 30/80/14 29/41/14
f 30/43/15 32/81/15 31/44/15
f 32/46/16 34/82/16 33/47/16
f 34/49/17 36/83/17 35/50/17
f 36/52/18 38/84/18 37/53/18
f 6/57/19 4/85/19 38/86/19
f 2/87/19 40/88/19 38/86/19
f 38/86/19 36/89/19 30/55/19
f 34/90/19 32/91/19 30/55/19
f 30/55/19 28/92/19 26/93/19
f 26/93/19 24/94/19 30/55/19
f 22/95/19 20/96/19 14/97/19
f 18/98/19 16/99/19 14/97/19
f 14/97/19 12/100/19 10/56/19
f 10/56/19 8/101/19 6/57/19
f 4/85/19 2/87/19 38/86/19
f 36/89/19 34/90/19 30/55/19
f 30/55/19 24/94/19 22/95/19
f 20/96/19 18/98/19 14/97/19
f 14/97/19 10/56/19 30/55/19
f 6/57/19 38/86/19 30/55/19
f 30/55/19 22/95/19 14/97/19
f 38/58/20 40/102/20 39/59/20
f 40/61/21 2/103/21 1/62/21
f 39/66/22 1/104/22 3/105/22
f 3/105/22 5/106/22 39/66/22
f 7/107/22 9/108/22 11/109/22
f 11/109/22 13/110/22 15/111/22
f 15/111/22 17/112/22 23/64/22
f 19/113/22 21/114/22 23/64/22
f 23/64/22 25/115/22 27/116/22
f 27/116/22 29/117/22 23/64/22
f 31/65/22 33/118/22 35/119/22
f 35/119/22 37/120/22 31/65/22
f 39/66/22 5/106/22 7/107/22
f 7/107/22 11/109/22 39/66/22
f 17/112/22 19/113/22 23/64/22
f 23/64/22 29/117/22 31/65/22
f 31/65/22 37/120/22 39/66/22
f 39/66/22 11/109/22 15/111/22
f 15/111/22 23/64/22 39/66/22
o Cube.009_Cube.013
v -4.250000 0.500000 1.250000
v -2.250000 7.750000 1.250000
v -4.250000 0.500000 -3.250000
v -2.250000 7.750000 -3.250000
v 4.250000 0.500000 1.250000
v 2.250000 7.750000 1.250000
v 4.250000 0.500000 -3.250000
v 2.250000 7.750000 -3.250000
vt -0.0402 1.5326
vt -1.8387 -0.4826
vt -0.4592 -0.5326
vt 2.2819 1.5827
vt 1.3213 -0.5326
vt 2.9512 -0.4842
vt 2.2819 1.5827
vt 1.3213 -0.5326
vt 2.9512 -0.4842
vt 0.9023 1.5326
vt 1.0000 0.0000
vt 0.0000 1.0000
vt 0.0000 0.0000
vt 1.0000 0.0000
vt 0.0000 1.0000
vt 0.0000 0.0000
vt -1.4198 1.5827
vt 0.9023 1.5326
vt 1.0000 1.0000
vt 1.0000 1.0000
vn -0.9640 0.2659 0.0000
vn 0.0000 0.0000 -1.0000
vn 0.9640 0.2659 0.0000
vn 0.0000 0.0000 1.0000
vn 0.0000 -1.0000 0.0000
vn 0.0000 1.0000 0.0000
usemtl material_stone_wall
s off
f 42/121/23 43/122/23 41/123/23
f 44/124/24 47/125/24 43/126/24
f 48/127/25 45/128/25 47/129/25
f 46/130/26 41/123/26 45/128/26
f 47/131/27 41/132/27 43/133/27
f 44/134/28 46/135/28 48/136/28
f 42/121/23 44/137/23 43/122/23
f 44/124/24 48/138/24 47/125/24
f 48/127/25 46/130/25 45/128/25
f 46/130/26 42/121/26 41/123/26
f 47/131/27 45/139/27 41/132/27
f 44/134/28 42/140/28 46/135/28
o Cube.008_Cube.012
v -4.250000 -0.750000 3.250000
v -4.250000 0.500000 3.250000
v -4.250000 -0.750000 0.250000
v -4.250000 0.500000 0.250000
v 4.250000 -0.750000 3.250000
v 4.250000 0.500000 3.250000
v 4.250000 -0.750000 0.250000
v 4.250000 0.500000 0.250000
vt 2.7855 3.0000
vt 1.5000 2.4828
vt 2.7855 2.4828
vt 1.0000 0.0000
vt 0.0000 1.0000
vt 0.0000 0.0000
vt 0.0000 3.0000
vt -1.2855 2.4828
vt 0.0000 2.4828
vt 2.0000 0.2939
vt 0.0000 0.0000
vt 2.0000 0.0000
vt 4.0000 0.0000
vt 0.0000 1.0000
vt 4.0000 0.0000
vt 0.0000 1.0000
vt 0.0000 0.0000
vt 1.5000 3.0000
vt 1.0000 1.0000
vt -1.2855 3.0000
vt 0.0000 0.2939
vt 4.0000 1.0000
vt 4.0000 1.0000
vn -1.0000 0.0000 0.0000
vn 0.0000 0.0000 -1.0000
vn 1.0000 0.0000 0.0000
vn 0.0000 0.0000 1.0000
vn 0.0000 -1.0000 0.0000
vn 0.0000 1.0000 0.0000
usemtl material_stone_wall
s off
f 50/141/29 51/142/29 49/143/29
f 52/144/30 55/145/30 51/146/30
f 56/147/31 53/148/31 55/149/31
f 54/150/32 49/151/32 53/152/32
f 55/153/33 49/154/33 51/146/33
f 52/155/34 54/156/34 56/157/34
f 50/141/29 52/158/29 51/142/29
f 52/144/30 56/159/30 55/145/30
f 56/147/31 54/160/31 53/148/31
f 54/150/32 50/161/32 49/151/32
f 55/153/33 53/162/33 49/154/33
f 52/155/34 50/163/34 54/156/34
o Cube.007_Cube.011
v -2.250000 -6.250000 -3.000000
v -2.250000 0.500000 -3.000000
v -2.250000 -6.250000 -3.250000
v -2.250000 0.500000 -3.250000
v 2.250000 -6.250000 -3.000000
v 2.250000 0.500000 -3.000000
v 2.250000 -6.250000 -3.250000
v 2.250000 0.500000 -3.250000
vt 1.4648 2.0000
vt 0.0000 0.0000
vt 1.4648 0.0000
vt 0.0000 2.0000
vt 0.0000 0.0000
vt 0.0000 0.0000
vt 0.0000 0.0000
vt 0.0000 0.0000
vt 0.0000 0.0000
vt 0.0000 0.0000
vt 0.0000 0.0000
vn 0.0000 0.0000 1.0000
vn -1.0000 0.0000 0.0000
vn 0.0000 0.0000 -1.0000
vn 1.0000 0.0000 0.0000
vn 0.0000 -1.0000 0.0000
vn 0.0000 1.0000 0.0000
usemtl material_stone_wall
s off
f 62/164/35 57/165/35 61/166/35
f 62/164/35 58/167/35 57/165/35
usemtl material_stone_wall_NONE
f 58/168/36 59/169/36 57/165/36
f 60/170/37 63/171/37 59/169/37
f 64/172/38 61/173/38 63/171/38
f 63/171/39 57/165/39 59/169/39
f 60/170/40 62/174/40 64/172/40
f 58/168/36 60/170/36 59/169/36
f 60/170/37 64/172/37 63/171/37
f 64/172/38 62/174/38 61/173/38
f 63/171/39 61/173/39 57/165/39
f 60/170/40 58/168/40 62/174/40
o Cube.006_Cube.010
v -4.250000 -6.000000 1.250000
v -4.250000 -0.750000 1.250000
v -4.250000 -6.000000 0.250000
v -4.250000 -0.750000 0.250000
v -2.250000 -6.000000 1.250000
v -2.250000 -0.750000 1.250000
v -2.250000 -6.000000 0.250000
v -2.250000 -0.750000 0.250000
vt 1.9287 2.4828
vt 1.5000 0.3105
vt 1.9287 0.3105
vt 1.0000 0.0000
vt 0.0000 1.0000
vt 0.0000 0.0000
vt 0.0000 2.4828
vt -0.4287 0.3105
vt 0.0000 0.3105
vt 1.0000 2.0000
vt 0.0000 0.0000
vt 1.0000 0.0000
vt 1.0000 0.0000
vt 0.0000 1.0000
vt 0.0000 1.0000
vt 0.0000 0.0000
vt 1.5000 2.4828
vt 1.0000 1.0000
vt -0.4287 2.4828
vt 0.0000 2.0000
vt 1.0000 1.0000
vt 1.0000 1.0000
vn -1.0000 0.0000 0.0000
vn 0.0000 0.0000 -1.0000
vn 1.0000 0.0000 0.0000
vn 0.0000 0.0000 1.0000
vn 0.0000 -1.0000 0.0000
vn 0.0000 1.0000 0.0000
usemtl material_stone_wall
s off
f 66/175/41 67/176/41 65/177/41
f 68/178/42 71/179/42 67/180/42
f 72/181/43 69/182/43 71/183/43
f 70/184/44 65/185/44 69/186/44
f 71/187/45 65/188/45 67/180/45
f 68/178/46 70/189/46 72/190/46
f 66/175/41 68/191/41 67/176/41
f 68/178/42 72/192/42 71/179/42
f 72/181/43 70/193/43 69/182/43
f 70/184/44 66/194/44 65/185/44
f 71/187/45 69/195/45 65/188/45
f 68/178/46 66/196/46 70/189/46
o Cube.005_Cube.009
v 2.250000 -6.000000 1.250000
v 2.250000 -0.750000 1.250000
v 2.250000 -6.000000 0.250000
v 2.250000 -0.750000 0.250000
v 4.250000 -6.000000 1.250000
v 4.250000 -0.750000 1.250000
v 4.250000 -6.000000 0.250000
v 4.250000 -0.750000 0.250000
vt 1.9287 2.4828
vt 1.5000 0.3105
vt 1.9287 0.3105
vt 1.0000 0.0000
vt 0.0000 1.0000
vt 0.0000 0.0000
vt 0.0000 2.4828
vt -0.4287 0.3105
vt 0.0000 0.3105
vt 1.0000 0.0000
vt 0.0000 2.0000
vt 0.0000 0.0000
vt 1.0000 0.0000
vt 0.0000 1.0000
vt 0.0000 1.0000
vt 0.0000 0.0000
vt 1.5000 2.4828
vt 1.0000 1.0000
vt -0.4287 2.4828
vt 1.0000 2.0000
vt 1.0000 1.0000
vt 1.0000 1.0000
vn -1.0000 0.0000 0.0000
vn 0.0000 0.0000 -1.0000
vn 1.0000 0.0000 0.0000
vn 0.0000 0.0000 1.0000
vn 0.0000 -1.0000 0.0000
vn 0.0000 1.0000 -0.0000
usemtl material_stone_wall
s off
f 74/197/47 75/198/47 73/199/47
f 76/200/48 79/201/48 75/202/48
f 80/203/49 77/204/49 79/205/49
f 77/206/50 74/207/50 73/208/50
f 79/209/51 73/210/51 75/202/51
f 76/200/52 78/211/52 80/212/52
f 74/197/47 76/213/47 75/198/47
f 76/200/48 80/214/48 79/201/48
f 80/203/49 78/215/49 77/204/49
f 77/206/50 78/216/50 74/207/50
f 79/209/51 77/217/51 73/210/51
f 76/200/52 74/218/52 78/211/52
o Cube.004_Cube.008
v -2.250000 -2.250000 1.250000
v -2.250000 -0.750000 1.250000
v -2.250000 -2.250000 0.250000
v -2.250000 -0.750000 0.250000
v 2.250000 -2.250000 1.250000
v 2.250000 -0.750000 1.250000
v 2.250000 -2.250000 0.250000
v 2.250000 -0.750000 0.250000
vt 1.0000 0.0000
vt 0.0000 1.0000
vt 0.0000 0.0000
vt 1.0000 0.0000
vt 0.0000 1.0000
vt 0.0000 0.0000
vt 1.0000 0.0000
vt 0.0000 1.0000
vt 0.0000 0.0000
vt 2.0000 2.0000
vt 0.0000 1.4286
vt 2.0000 1.4286
vt 2.0000 0.0000
vt 0.0000 1.0000
vt 0.0000 1.0000
vt 0.0000 0.0000
vt 1.0000 1.0000
vt 1.0000 1.0000
vt 1.0000 1.0000
vt 0.0000 2.0000
vt 2.0000 1.0000
vt 1.0000 1.0000
vn -1.0000 0.0000 0.0000
vn 0.0000 0.0000 -1.0000
vn 1.0000 0.0000 0.0000
vn 0.0000 0.0000 1.0000
vn 0.0000 -1.0000 0.0000
vn 0.0000 1.0000 0.0000
usemtl material_stone_wall
s off
f 82/219/53 83/220/53 81/221/53
f 84/222/54 87/223/54 83/224/54
f 88/225/55 85/226/55 87/227/55
f 86/228/56 81/229/56 85/230/56
f 87/231/57 81/232/57 83/224/57
f 84/222/58 86/233/58 88/234/58
f 82/219/53 84/235/53 83/220/53
f 84/222/54 88/236/54 87/223/54
f 88/225/55 86/237/55 85/226/55
f 86/228/56 82/238/56 81/229/56
f 87/231/57 85/239/57 81/232/57
f 84/222/58 82/240/58 86/233/58
o Cube.003_Cube.007
v -4.250000 -6.750000 0.250000
v -4.250000 0.500000 0.250000
v -4.250000 -6.750000 -3.250000
v -4.250000 0.500000 -3.250000
v -2.250000 -6.750000 0.250000
v -2.250000 0.500000 0.250000
v -2.250000 -6.750000 -3.250000
v -2.250000 0.500000 -3.250000
vt 1.5000 3.0000
vt 0.0000 0.0000
vt 1.5000 0.0000
vt 1.0000 0.0000
vt 0.0000 1.0000
vt 1.5000 3.0000
vt 0.0000 0.0000
vt 1.5000 0.0000
vt 1.0000 0.0000
vt 0.0000 1.0000
vt 1.0000 0.0000
vt 0.0000 1.0000
vt 0.0000 0.0000
vt 0.0000 3.0000
vt 1.0000 1.0000
vt 0.0000 3.0000
vt 1.0000 1.0000
vt 1.0000 1.0000
vn -1.0000 0.0000 0.0000
vn 0.0000 0.0000 -1.0000
vn 1.0000 0.0000 0.0000
vn 0.0000 0.0000 1.0000
vn 0.0000 -1.0000 0.0000
vn 0.0000 1.0000 0.0000
usemtl material_stone_wall
s off
f 90/241/59 91/242/59 89/243/59
f 92/244/60 95/245/60 91/242/60
f 96/246/61 93/247/61 95/248/61
f 94/249/62 89/250/62 93/247/62
f 95/251/63 89/250/63 91/242/63
f 92/244/64 94/252/64 96/253/64
f 90/241/59 92/254/59 91/242/59
f 92/244/60 96/255/60 95/245/60
f 96/246/61 94/256/61 93/247/61
f 94/249/62 90/257/62 89/250/62
f 95/251/63 93/258/63 89/250/63
f 92/244/64 90/257/64 94/252/64
o Cube.002_Cube.006
v 2.250000 -6.750000 0.250000
v 2.250000 0.500000 0.250000
v 2.250000 -6.750000 -3.250000
v 2.250000 0.500000 -3.250000
v 4.250000 -6.750000 0.250000
v 4.250000 0.500000 0.250000
v 4.250000 -6.750000 -3.250000
v 4.250000 0.500000 -3.250000
vt 1.5000 3.0000
vt 0.0000 0.0000
vt 1.5000 0.0000
vt 1.0000 0.0000
vt 0.0000 1.0000
vt 1.5000 3.0000
vt 0.0000 0.0000
vt 1.5000 0.0000
vt 1.0000 0.0000
vt 0.0000 1.0000
vt 1.0000 0.0000
vt 0.0000 1.0000
vt 0.0000 0.0000
vt 0.0000 3.0000
vt 1.0000 1.0000
vt 0.0000 3.0000
vt 1.0000 1.0000
vt 1.0000 1.0000
vn -1.0000 0.0000 0.0000
vn 0.0000 0.0000 -1.0000
vn 1.0000 0.0000 0.0000
vn 0.0000 0.0000 1.0000
vn 0.0000 -1.0000 0.0000
vn 0.0000 1.0000 0.0000
usemtl material_stone_wall
s off
f 98/259/65 99/260/65 97/261/65
f 100/262/66 103/263/66 99/260/66
f 104/264/67 101/265/67 103/266/67
f 102/267/68 97/268/68 101/265/68
f 103/269/69 97/268/69 99/260/69
f 100/262/70 102/270/70 104/271/70
f 98/259/65 100/272/65 99/260/65
f 100/262/66 104/273/66 103/263/66
f 104/264/67 102/274/67 101/265/67
f 102/267/68 98/275/68 97/268/68
f 103/269/69 101/276/69 97/268/69
f 100/262/70 98/275/70 102/270/70
o Cube.001_Cube.004
v -2.250000 -6.750000 0.250000
v -2.250000 -6.250000 0.250000
v -2.250000 -6.750000 -3.250000
v -2.250000 -6.250000 -3.250000
v 2.250000 -6.750000 0.250000
v 2.250000 -6.250000 0.250000
v 2.250000 -6.750000 -3.250000
v 2.250000 -6.250000 -3.250000
vt 0.0000 1.0000
vt 2.0000 0.0000
vt 2.0000 1.0000
vt 0.0000 0.0000
vt 0.0000 0.0000
vt 0.0000 0.0000
vt 0.0000 0.0000
vt 0.0000 0.0000
vt 0.0000 0.0000
vt 0.0000 0.0000
vt 0.0000 0.0000
vn 0.0000 1.0000 0.0000
vn -1.0000 0.0000 0.0000
vn 0.0000 0.0000 -1.0000
vn 1.0000 0.0000 0.0000
vn 0.0000 0.0000 1.0000
vn 0.0000 -1.0000 0.0000
usemtl material_stone_wall
s off
f 108/277/71 110/278/71 112/279/71
f 108/277/71 106/280/71 110/278/71
usemtl material_stone_wall_NONE
f 106/280/72 107/281/72 105/282/72
f 108/283/73 111/284/73 107/281/73
f 112/285/74 109/286/74 111/284/74
f 110/287/75 105/282/75 109/286/75
f 111/284/76 105/282/76 107/281/76
f 106/280/72 108/283/72 107/281/72
f 108/283/73 112/285/73 111/284/73
f 112/285/74 110/287/74 109/286/74
f 110/287/75 106/280/75 105/282/75
f 111/284/76 109/286/76 105/282/76
o Cube
v -4.250000 -6.750000 3.250000
v -4.250000 -6.000000 3.250000
v -4.250000 -6.750000 0.250000
v -4.250000 -6.000000 0.250000
v 4.250000 -6.750000 3.250000
v 4.250000 -6.000000 3.250000
v 4.250000 -6.750000 0.250000
v 4.250000 -6.000000 0.250000
vt 2.7855 0.3105
vt 1.5000 0.0000
vt 2.7855 0.0000
vt 1.0000 0.0000
vt 0.0000 1.0000
vt 0.0000 0.0000
vt 0.0000 0.3105
vt -1.2855 0.0000
vt 0.0000 0.0000
vt 4.0000 0.5000
vt 0.0000 0.0000
vt 4.0000 0.0000
vt 1.0000 0.0000
vt 0.0000 1.0000
vt 4.0000 0.0000
vt 0.0000 1.0000
vt 0.0000 0.0000
vt 1.5000 0.3105
vt 1.0000 1.0000
vt -1.2855 0.3105
vt 0.0000 0.5000
vt 1.0000 1.0000
vt 4.0000 1.0000
vn -1.0000 0.0000 0.0000
vn 0.0000 0.0000 -1.0000
vn 1.0000 0.0000 0.0000
vn 0.0000 0.0000 1.0000
vn 0.0000 -1.0000 0.0000
vn 0.0000 1.0000 0.0000
usemtl material_stone_wall
s off
f 114/288/77 115/289/77 113/290/77
f 116/291/78 119/292/78 115/293/78
f 120/294/79 117/295/79 119/296/79
f 118/297/80 113/298/80 117/299/80
f 119/300/81 113/301/81 115/293/81
f 116/302/82 118/303/82 120/304/82
f 114/288/77 116/305/77 115/289/77
f 116/291/78 120/306/78 119/292/78
f 120/294/79 118/307/79 117/295/79
f 118/297/80 114/308/80 113/298/80
f 119/300/81 117/309/81 113/301/81
f 116/302/82 114/310/82 118/303/82
