# Blender v2.78 (sub 0) OBJ File: 'Stove.blend'
# www.blender.org
mtllib Stove.mtl
o Cube.007_Cube.008
v -2.250000 -2.375000 2.250000
v -2.250000 0.125000 2.250000
v -2.250000 -2.375000 2.000000
v -2.250000 0.125000 2.000000
v 2.250000 -2.375000 2.250000
v 2.250000 0.125000 2.250000
v 2.250000 -2.375000 2.000000
v 2.250000 0.125000 2.000000
vt 1.0000 0.0000
vt 0.0000 0.1250
vt 0.0000 0.0000
vt 1.0000 0.0000
vt 0.0000 1.0000
vt 0.0000 0.0000
vt 1.0000 0.0000
vt 0.0000 0.1250
vt 0.0000 0.0000
vt 1.0000 0.0000
vt 0.0000 1.0000
vt 0.0000 0.0000
vt 1.0000 0.0000
vt 0.0000 0.1250
vt 0.0000 0.1250
vt 0.0000 0.0000
vt 1.0000 0.1250
vt 1.0000 1.0000
vt 1.0000 0.1250
vt 1.0000 1.0000
vt 1.0000 0.1250
vt 1.0000 0.1250
vn -1.0000 0.0000 0.0000
vn 0.0000 0.0000 -1.0000
vn 1.0000 0.0000 0.0000
vn 0.0000 0.0000 1.0000
vn 0.0000 -1.0000 0.0000
vn 0.0000 1.0000 0.0000
usemtl material_metal_dark
s off
f 2/1/1 3/2/1 1/3/1
f 4/4/2 7/5/2 3/6/2
f 8/7/3 5/8/3 7/9/3
f 6/10/4 1/11/4 5/12/4
f 7/13/5 1/14/5 3/6/5
f 4/4/6 6/15/6 8/16/6
f 2/1/1 4/17/1 3/2/1
f 4/4/2 8/18/2 7/5/2
f 8/7/3 6/19/3 5/8/3
f 6/10/4 2/20/4 1/11/4
f 7/13/5 5/21/5 1/14/5
f 4/4/6 2/22/6 6/15/6
o Cube.006_Cube.007
v -2.625000 -5.000000 -1.125000
v -2.625000 -3.250000 -1.125000
v -2.625000 -5.000000 -1.875000
v -2.625000 -3.250000 -1.875000
v -1.875000 -5.000000 -1.125000
v -1.875000 -3.250000 -1.125000
v -1.875000 -5.000000 -1.875000
v -1.875000 -3.250000 -1.875000
vt 1.0000 0.0000
vt 0.0000 1.0000
vt 0.0000 0.0000
vt 1.0000 0.0000
vt 0.0000 1.0000
vt 0.0000 0.0000
vt 1.0000 0.0000
vt 0.0000 1.0000
vt 0.0000 0.0000
vt 1.0000 0.0000
vt 0.0000 1.0000
vt 0.0000 0.0000
vt 1.0000 0.0000
vt 0.0000 1.0000
vt 0.0000 0.0000
vt 1.0000 1.0000
vt 1.0000 1.0000
vt 1.0000 1.0000
vt 1.0000 1.0000
vt 1.0000 1.0000
vn -1.0000 0.0000 0.0000
vn 0.0000 0.0000 -1.0000
vn 1.0000 0.0000 0.0000
vn 0.0000 0.0000 1.0000
vn 0.0000 -1.0000 0.0000
vn 0.0000 1.0000 0.0000
usemtl material_metal_dark
s off
f 10/23/7 11/24/7 9/25/7
f 12/26/8 15/27/8 11/28/8
f 16/29/9 13/30/9 15/31/9
f 14/32/10 9/33/10 13/34/10
f 15/35/11 9/33/11 11/28/11
f 12/26/12 14/36/12 16/37/12
f 10/23/7 12/38/7 11/24/7
f 12/26/8 16/39/8 15/27/8
f 16/29/9 14/40/9 13/30/9
f 14/32/10 10/41/10 9/33/10
f 15/35/11 13/42/11 9/33/11
f 12/26/12 10/41/12 14/36/12
o Cube.005_Cube.006
v 1.875000 -5.000000 -1.125000
v 1.875000 -3.250000 -1.125000
v 1.875000 -5.000000 -1.875000
v 1.875000 -3.250000 -1.875000
v 2.625000 -5.000000 -1.125000
v 2.625000 -3.250000 -1.125000
v 2.625000 -5.000000 -1.875000
v 2.625000 -3.250000 -1.875000
vt 1.0000 0.0000
vt 0.0000 1.0000
vt 0.0000 0.0000
vt 1.0000 0.0000
vt 0.0000 1.0000
vt 0.0000 0.0000
vt 1.0000 0.0000
vt 0.0000 1.0000
vt 0.0000 0.0000
vt 1.0000 0.0000
vt 0.0000 1.0000
vt 0.0000 0.0000
vt 1.0000 0.0000
vt 0.0000 1.0000
vt 0.0000 0.0000
vt 1.0000 1.0000
vt 1.0000 1.0000
vt 1.0000 1.0000
vt 1.0000 1.0000
vt 1.0000 1.0000
vn -1.0000 0.0000 0.0000
vn 0.0000 0.0000 -1.0000
vn 1.0000 0.0000 0.0000
vn 0.0000 0.0000 1.0000
vn 0.0000 -1.0000 0.0000
vn 0.0000 1.0000 0.0000
usemtl material_metal_dark
s off
f 18/43/13 19/44/13 17/45/13
f 20/46/14 23/47/14 19/48/14
f 24/49/15 21/50/15 23/51/15
f 22/52/16 17/53/16 21/54/16
f 23/55/17 17/53/17 19/48/17
f 20/46/18 22/56/18 24/57/18
f 18/43/13 20/58/13 19/44/13
f 20/46/14 24/59/14 23/47/14
f 24/49/15 22/60/15 21/50/15
f 22/52/16 18/61/16 17/53/16
f 23/55/17 21/62/17 17/53/17
f 20/46/18 18/61/18 22/56/18
o Cube.004
v 1.875000 -5.000000 1.875000
v 1.875000 -3.250000 1.875000
v 1.875000 -5.000000 1.125000
v 1.875000 -3.250000 1.125000
v 2.625000 -5.000000 1.875000
v 2.625000 -3.250000 1.875000
v 2.625000 -5.000000 1.125000
v 2.625000 -3.250000 1.125000
vt 1.0000 0.0000
vt 0.0000 1.0000
vt 0.0000 0.0000
vt 1.0000 0.0000
vt 0.0000 1.0000
vt 0.0000 0.0000
vt 1.0000 0.0000
vt 0.0000 1.0000
vt 0.0000 0.0000
vt 1.0000 0.0000
vt 0.0000 1.0000
vt 0.0000 0.0000
vt 1.0000 0.0000
vt 0.0000 1.0000
vt 0.0000 0.0000
vt 1.0000 1.0000
vt 1.0000 1.0000
vt 1.0000 1.0000
vt 1.0000 1.0000
vt 1.0000 1.0000
vn -1.0000 0.0000 0.0000
vn 0.0000 0.0000 -1.0000
vn 1.0000 0.0000 0.0000
vn 0.0000 0.0000 1.0000
vn 0.0000 -1.0000 0.0000
vn 0.0000 1.0000 0.0000
usemtl material_metal_dark
s off
f 26/63/19 27/64/19 25/65/19
f 28/66/20 31/67/20 27/68/20
f 32/69/21 29/70/21 31/71/21
f 30/72/22 25/73/22 29/74/22
f 31/75/23 25/73/23 27/68/23
f 28/66/24 30/76/24 32/77/24
f 26/63/19 28/78/19 27/64/19
f 28/66/20 32/79/20 31/67/20
f 32/69/21 30/80/21 29/70/21
f 30/72/22 26/81/22 25/73/22
f 31/75/23 29/82/23 25/73/23
f 28/66/24 26/81/24 30/76/24
o Cube.003
v -2.625000 -5.000000 1.875000
v -2.625000 -3.250000 1.875000
v -2.625000 -5.000000 1.125000
v -2.625000 -3.250000 1.125000
v -1.875000 -5.000000 1.875000
v -1.875000 -3.250000 1.875000
v -1.875000 -5.000000 1.125000
v -1.875000 -3.250000 1.125000
vt 1.0000 0.0000
vt 0.0000 1.0000
vt 0.0000 0.0000
vt 1.0000 0.0000
vt 0.0000 1.0000
vt 0.0000 0.0000
vt 1.0000 0.0000
vt 0.0000 1.0000
vt 0.0000 0.0000
vt 1.0000 0.0000
vt 0.0000 1.0000
vt 0.0000 0.0000
vt 1.0000 0.0000
vt 0.0000 1.0000
vt 0.0000 0.0000
vt 1.0000 1.0000
vt 1.0000 1.0000
vt 1.0000 1.0000
vt 1.0000 1.0000
vt 1.0000 1.0000
vn -1.0000 0.0000 0.0000
vn 0.0000 0.0000 -1.0000
vn 1.0000 0.0000 0.0000
vn 0.0000 0.0000 1.0000
vn 0.0000 -1.0000 0.0000
vn 0.0000 1.0000 0.0000
usemtl material_metal_dark
s off
f 34/83/25 35/84/25 33/85/25
f 36/86/26 39/87/26 35/88/26
f 40/89/27 37/90/27 39/91/27
f 38/92/28 33/93/28 37/94/28
f 39/95/29 33/93/29 35/88/29
f 36/86/30 38/96/30 40/97/30
f 34/83/25 36/98/25 35/84/25
f 36/86/26 40/99/26 39/87/26
f 40/89/27 38/100/27 37/90/27
f 38/92/28 34/101/28 33/93/28
f 39/95/29 37/102/29 33/93/29
f 36/86/30 34/101/30 38/96/30
o Cube.002
v -3.000000 -3.250000 2.250000
v -3.000000 -3.000000 2.250000
v -3.000000 -3.250000 -2.250000
v -3.000000 -3.000000 -2.250000
v 3.000000 -3.250000 2.250000
v 3.000000 -3.000000 2.250000
v 3.000000 -3.250000 -2.250000
v 3.000000 -3.000000 -2.250000
vt 0.0000 0.0000
vt 1.0000 0.0625
vt 0.0000 0.0625
vt 0.0000 0.0000
vt 1.0000 0.0625
vt 0.0000 0.0625
vt 0.0000 0.0000
vt 1.0000 0.0625
vt 0.0000 0.0625
vt 0.0000 0.0000
vt 1.0000 0.0625
vt 0.0000 0.0625
vt 1.0000 0.0000
vt 0.0000 1.0000
vt 0.0000 0.0000
vt 1.0000 0.0000
vt 0.0000 1.0000
vt 1.0000 0.0000
vt 1.0000 0.0000
vt 1.0000 0.0000
vt 1.0000 1.0000
vt 1.0000 1.0000
vn -1.0000 0.0000 0.0000
vn 0.0000 0.0000 -1.0000
vn 1.0000 0.0000 0.0000
vn 0.0000 0.0000 1.0000
vn 0.0000 -1.0000 0.0000
vn 0.0000 1.0000 0.0000
usemtl material_metal_dark
s off
f 42/103/31 43/104/31 41/105/31
f 44/106/32 47/107/32 43/108/32
f 48/109/33 45/110/33 47/111/33
f 46/112/34 41/113/34 45/114/34
f 47/115/35 41/116/35 43/117/35
f 44/118/36 46/119/36 48/109/36
f 42/103/31 44/118/31 43/104/31
f 44/106/32 48/120/32 47/107/32
f 48/109/33 46/121/33 45/110/33
f 46/112/34 42/122/34 41/113/34
f 47/115/35 45/123/35 41/116/35
f 44/118/36 42/124/36 46/119/36
o Cube.001
v -3.000000 0.750000 2.250000
v -3.000000 1.000000 2.250000
v -3.000000 0.750000 -2.250000
v -3.000000 1.000000 -2.250000
v 3.000000 0.750000 2.250000
v 3.000000 1.000000 2.250000
v 3.000000 0.750000 -2.250000
v 3.000000 1.000000 -2.250000
vt 0.0000 0.0000
vt 1.0000 0.0625
vt 0.0000 0.0625
vt 0.0000 0.0000
vt 1.0000 0.0625
vt 0.0000 0.0625
vt 0.0000 0.0000
vt 1.0000 0.0625
vt 0.0000 0.0625
vt 0.0000 0.0000
vt 1.0000 0.0625
vt 0.0000 0.0625
vt 1.0000 0.0000
vt 0.0000 1.0000
vt 0.0000 0.0000
vt 1.0000 0.0000
vt 0.0000 1.0000
vt 1.0000 0.0000
vt 1.0000 0.0000
vt 1.0000 0.0000
vt 1.0000 1.0000
vt 1.0000 1.0000
vn -1.0000 0.0000 0.0000
vn 0.0000 0.0000 -1.0000
vn 1.0000 0.0000 0.0000
vn 0.0000 0.0000 1.0000
vn 0.0000 -1.0000 0.0000
vn 0.0000 1.0000 0.0000
usemtl material_metal_dark
s off
f 50/125/37 51/126/37 49/127/37
f 52/128/38 55/129/38 51/130/38
f 56/131/39 53/132/39 55/133/39
f 54/134/40 49/135/40 53/136/40
f 55/137/41 49/138/41 51/139/41
f 52/140/42 54/141/42 56/131/42
f 50/125/37 52/140/37 51/126/37
f 52/128/38 56/142/38 55/129/38
f 56/131/39 54/143/39 53/132/39
f 54/134/40 50/144/40 49/135/40
f 55/137/41 53/145/41 49/138/41
f 52/140/42 50/146/42 54/141/42
o Cylinder
v 1.750000 1.000000 -0.500000
v 1.750000 5.000000 -0.500000
v 1.847545 1.000000 -0.490393
v 1.847545 5.000000 -0.490393
v 1.941342 1.000000 -0.461940
v 1.941342 5.000000 -0.461940
v 2.027785 1.000000 -0.415735
v 2.027785 5.000000 -0.415735
v 2.103553 1.000000 -0.353553
v 2.103553 5.000000 -0.353553
v 2.165735 1.000000 -0.277785
v 2.165735 5.000000 -0.277785
v 2.211940 1.000000 -0.191342
v 2.211940 5.000000 -0.191342
v 2.240393 1.000000 -0.097545
v 2.240393 5.000000 -0.097545
v 2.250000 1.000000 -0.000000
v 2.250000 5.000000 -0.000000
v 2.240393 1.000000 0.097545
v 2.240393 5.000000 0.097545
v 2.211940 1.000000 0.191342
v 2.211940 5.000000 0.191342
v 2.165735 1.000000 0.277785
v 2.165735 5.000000 0.277785
v 2.103553 1.000000 0.353553
v 2.103553 5.000000 0.353553
v 2.027785 1.000000 0.415735
v 2.027785 5.000000 0.415735
v 1.941342 1.000000 0.461940
v 1.941342 5.000000 0.461940
v 1.847545 1.000000 0.490393
v 1.847545 5.000000 0.490393
v 1.750000 1.000000 0.500000
v 1.750000 5.000000 0.500000
v 1.652455 1.000000 0.490393
v 1.652455 5.000000 0.490393
v 1.558658 1.000000 0.461940
v 1.558658 5.000000 0.461940
v 1.472215 1.000000 0.415735
v 1.472215 5.000000 0.415735
v 1.396446 1.000000 0.353553
v 1.396446 5.000000 0.353553
v 1.334265 1.000000 0.277785
v 1.334265 5.000000 0.277785
v 1.288060 1.000000 0.191341
v 1.288060 5.000000 0.191341
v 1.259607 1.000000 0.097545
v 1.259607 5.000000 0.097545
v 1.250000 1.000000 -0.000000
v 1.250000 5.000000 -0.000000
v 1.259607 1.000000 -0.097546
v 1.259607 5.000000 -0.097546
v 1.288060 1.000000 -0.191342
v 1.288060 5.000000 -0.191342
v 1.334265 1.000000 -0.277786
v 1.334265 5.000000 -0.277786
v 1.396447 1.000000 -0.353554
v 1.396447 5.000000 -0.353554
v 1.472215 1.000000 -0.415735
v 1.472215 5.000000 -0.415735
v 1.558659 1.000000 -0.461940
v 1.558659 5.000000 -0.461940
v 1.652456 1.000000 -0.490393
v 1.652456 5.000000 -0.490393
vt 0.7500 -4.5000
vt 1.0000 5.5000
vt 0.7500 5.5000
vt 0.5000 -3.0000
vt 0.7500 7.0000
vt 0.5000 7.0000
vt 0.2500 -1.5000
vt 0.5000 8.5000
vt 0.2500 8.5000
vt 0.0000 0.0000
vt 0.2500 10.0000
vt 0.0000 10.0000
vt 0.7500 -4.5000
vt 1.0000 5.5000
vt 0.7500 5.5000
vt 0.5000 -3.0000
vt 0.7500 7.0000
vt 0.5000 7.0000
vt 0.2500 -1.5000
vt 0.5000 8.5000
vt 0.2500 8.5000
vt 0.0000 0.0000
vt 0.2500 10.0000
vt 0.0000 10.0000
vt 0.7500 -4.5000
vt 1.0000 5.5000
vt 0.7500 5.5000
vt 0.5000 -3.0000
vt 0.7500 7.0000
vt 0.5000 7.0000
vt 0.2500 -1.5000
vt 0.5000 8.5000
vt 0.2500 8.5000
vt 0.0000 0.0000
vt 0.2500 10.0000
vt 0.0000 10.0000
vt 0.7500 -4.5000
vt 1.0000 5.5000
vt 0.7500 5.5000
vt 0.5000 -3.0000
vt 0.7500 7.0000
vt 0.5000 7.0000
vt 0.7500 -4.5000
vt 1.0000 5.5000
vt 0.7500 5.5000
vt 0.5000 -3.0000
vt 0.7500 7.0000
vt 0.5000 7.0000
vt 0.2500 -1.5000
vt 0.5000 8.5000
vt 0.2500 8.5000
vt 0.0000 0.0000
vt 0.2500 10.0000
vt 0.0000 10.0000
vt 0.7500 -4.5000
vt 1.0000 5.5000
vt 0.7500 5.5000
vt 0.5000 -3.0000
vt 0.7500 7.0000
vt 0.5000 7.0000
vt 0.2500 -1.5000
vt 0.5000 8.5000
vt 0.2500 8.5000
vt 0.0000 0.0000
vt 0.2500 10.0000
vt 0.0000 10.0000
vt 0.7500 -4.5000
vt 1.0000 5.5000
vt 0.7500 5.5000
vt 0.5000 -3.0000
vt 0.7500 7.0000
vt 0.5000 7.0000
vt 0.2500 -1.5000
vt 0.5000 8.5000
vt 0.2500 8.5000
vt 0.0000 0.0000
vt 0.2500 10.0000
vt 0.0000 10.0000
vt 0.7500 -4.5000
vt 1.0000 5.5000
vt 0.7500 5.5000
vt 0.5000 -3.0000
vt 0.7500 7.0000
vt 0.5000 7.0000
vt 0.2500 -1.5000
vt 0.5000 8.5000
vt 0.2500 8.5000
vt 0.0000 0.0000
vt 0.2500 10.0000
vt 0.0000 10.0000
vt 0.5975 0.0096
vt 0.0096 0.4025
vt 0.9904 0.5975
vt 0.2500 -1.5000
vt 0.5000 8.5000
vt 0.2500 8.5000
vt 0.0000 0.0000
vt 0.2500 10.0000
vt 0.0000 10.0000
vt 0.5975 0.0096
vt 0.0096 0.4025
vt 0.9904 0.5975
vt 1.0000 -4.5000
vt 0.7500 -3.0000
vt 0.5000 -1.5000
vt 0.2500 0.0000
vt 1.0000 -4.5000
vt 0.7500 -3.0000
vt 0.5000 -1.5000
vt 0.2500 0.0000
vt 1.0000 -4.5000
vt 0.7500 -3.0000
vt 0.5000 -1.5000
vt 0.2500 0.0000
vt 1.0000 -4.5000
vt 0.7500 -3.0000
vt 1.0000 -4.5000
vt 0.7500 -3.0000
vt 0.5000 -1.5000
vt 0.2500 0.0000
vt 1.0000 -4.5000
vt 0.7500 -3.0000
vt 0.5000 -1.5000
vt 0.2500 0.0000
vt 1.0000 -4.5000
vt 0.7500 -3.0000
vt 0.5000 -1.5000
vt 0.2500 0.0000
vt 1.0000 -4.5000
vt 0.7500 -3.0000
vt 0.5000 -1.5000
vt 0.2500 0.0000
vt 0.4025 0.9904
vt 0.5000 1.0000
vt 0.7778 0.9157
vt 0.5975 0.9904
vt 0.6913 0.9619
vt 0.8536 0.8536
vt 0.9157 0.7778
vt 0.9619 0.6913
vt 1.0000 0.5000
vt 0.9904 0.4025
vt 0.9619 0.3087
vt 0.9157 0.2222
vt 0.8536 0.1464
vt 0.7778 0.0843
vt 0.6913 0.0381
vt 0.5000 0.0000
vt 0.4025 0.0096
vt 0.3087 0.0381
vt 0.2222 0.0843
vt 0.1464 0.1464
vt 0.0843 0.2222
vt 0.0381 0.3087
vt 0.0000 0.5000
vt 0.0096 0.5975
vt 0.0381 0.6913
vt 0.0843 0.7778
vt 0.1464 0.8536
vt 0.2222 0.9157
vt 0.3087 0.9619
vt 0.5000 -1.5000
vt 0.2500 0.0000
vt 0.4025 0.9904
vt 0.5000 1.0000
vt 0.5975 0.9904
vt 0.6913 0.9619
vt 0.7778 0.9157
vt 0.8536 0.8536
vt 0.9157 0.7778
vt 0.9619 0.6913
vt 1.0000 0.5000
vt 0.9157 0.2222
vt 0.9904 0.4025
vt 0.9619 0.3087
vt 0.8536 0.1464
vt 0.7778 0.0843
vt 0.6913 0.0381
vt 0.5000 0.0000
vt 0.4025 0.0096
vt 0.3087 0.0381
vt 0.2222 0.0843
vt 0.1464 0.1464
vt 0.0843 0.2222
vt 0.0381 0.3087
vt 0.0000 0.5000
vt 0.0096 0.5975
vt 0.0381 0.6913
vt 0.0843 0.7778
vt 0.1464 0.8536
vt 0.2222 0.9157
vt 0.3087 0.9619
vn 0.0980 0.0000 -0.9952
vn 0.2903 0.0000 -0.9569
vn 0.4714 0.0000 -0.8819
vn 0.6344 0.0000 -0.7730
vn 0.7730 0.0000 -0.6344
vn 0.8819 0.0000 -0.4714
vn 0.9569 0.0000 -0.2903
vn 0.9952 0.0000 -0.0980
vn 0.9952 0.0000 0.0980
vn 0.9569 0.0000 0.2903
vn 0.8819 0.0000 0.4714
vn 0.7730 0.0000 0.6344
vn 0.6344 0.0000 0.7730
vn 0.4714 0.0000 0.8819
vn 0.2903 0.0000 0.9569
vn 0.0980 0.0000 0.9952
vn -0.0980 0.0000 0.9952
vn -0.2903 0.0000 0.9569
vn -0.4714 0.0000 0.8819
vn -0.6344 0.0000 0.7730
vn -0.7730 0.0000 0.6344
vn -0.8819 0.0000 0.4714
vn -0.9569 0.0000 0.2903
vn -0.9952 0.0000 0.0980
vn -0.9952 0.0000 -0.0980
vn -0.9569 0.0000 -0.2903
vn -0.8819 0.0000 -0.4714
vn -0.7730 0.0000 -0.6344
vn -0.6344 0.0000 -0.7730
vn -0.4714 0.0000 -0.8819
vn 0.0000 1.0000 0.0000
vn -0.2903 0.0000 -0.9569
vn -0.0980 0.0000 -0.9952
vn 0.0000 -1.0000 0.0000
usemtl material_metal_dark
s off
f 58/147/43 59/148/43 57/149/43
f 60/150/44 61/151/44 59/152/44
f 62/153/45 63/154/45 61/155/45
f 64/156/46 65/157/46 63/158/46
f 66/159/47 67/160/47 65/161/47
f 68/162/48 69/163/48 67/164/48
f 70/165/49 71/166/49 69/167/49
f 72/168/50 73/169/50 71/170/50
f 74/171/51 75/172/51 73/173/51
f 76/174/52 77/175/52 75/176/52
f 78/177/53 79/178/53 77/179/53
f 80/180/54 81/181/54 79/182/54
f 82/183/55 83/184/55 81/185/55
f 84/186/56 85/187/56 83/188/56
f 86/189/57 87/190/57 85/191/57
f 88/192/58 89/193/58 87/194/58
f 90/195/59 91/196/59 89/197/59
f 92/198/60 93/199/60 91/200/60
f 94/201/61 95/202/61 93/203/61
f 96/204/62 97/205/62 95/206/62
f 98/207/63 99/208/63 97/209/63
f 100/210/64 101/211/64 99/212/64
f 102/213/65 103/214/65 101/215/65
f 104/216/66 105/217/66 103/218/66
f 106/219/67 107/220/67 105/221/67
f 108/222/68 109/223/68 107/224/68
f 110/225/69 111/226/69 109/227/69
f 112/228/70 113/229/70 111/230/70
f 114/231/71 115/232/71 113/233/71
f 116/234/72 117/235/72 115/236/72
f 94/237/73 78/238/73 110/239/73
f 118/240/74 119/241/74 117/242/74
f 120/243/75 57/244/75 119/245/75
f 87/246/76 103/247/76 71/248/76
f 58/147/43 60/249/43 59/148/43
f 60/150/44 62/250/44 61/151/44
f 62/153/45 64/251/45 63/154/45
f 64/156/46 66/252/46 65/157/46
f 66/159/47 68/253/47 67/160/47
f 68/162/48 70/254/48 69/163/48
f 70/165/49 72/255/49 71/166/49
f 72/168/50 74/256/50 73/169/50
f 74/171/51 76/257/51 75/172/51
f 76/174/52 78/258/52 77/175/52
f 78/177/53 80/259/53 79/178/53
f 80/180/54 82/260/54 81/181/54
f 82/183/55 84/261/55 83/184/55
f 84/186/56 86/262/56 85/187/56
f 86/189/57 88/263/57 87/190/57
f 88/192/58 90/264/58 89/193/58
f 90/195/59 92/265/59 91/196/59
f 92/198/60 94/266/60 93/199/60
f 94/201/61 96/267/61 95/202/61
f 96/204/62 98/268/62 97/205/62
f 98/207/63 100/269/63 99/208/63
f 100/210/64 102/270/64 101/211/64
f 102/213/65 104/271/65 103/214/65
f 104/216/66 106/272/66 105/217/66
f 106/219/67 108/273/67 107/220/67
f 108/222/68 110/274/68 109/223/68
f 110/225/69 112/275/69 111/226/69
f 112/228/70 114/276/70 113/229/70
f 114/231/71 116/277/71 115/232/71
f 116/234/72 118/278/72 117/235/72
f 62/279/73 60/280/73 118/281/73
f 58/282/73 120/283/73 118/281/73
f 118/281/73 116/284/73 114/285/73
f 114/285/73 112/286/73 110/239/73
f 110/239/73 108/287/73 106/288/73
f 106/288/73 104/289/73 110/239/73
f 102/290/73 100/291/73 98/292/73
f 98/292/73 96/293/73 102/290/73
f 94/237/73 92/294/73 90/295/73
f 90/295/73 88/296/73 94/237/73
f 86/297/73 84/298/73 82/299/73
f 82/299/73 80/300/73 78/238/73
f 78/238/73 76/301/73 74/302/73
f 74/302/73 72/303/73 70/304/73
f 70/304/73 68/305/73 66/306/73
f 66/306/73 64/307/73 62/279/73
f 60/280/73 58/282/73 118/281/73
f 118/281/73 114/285/73 62/279/73
f 110/239/73 104/289/73 102/290/73
f 102/290/73 96/293/73 94/237/73
f 94/237/73 88/296/73 86/297/73
f 86/297/73 82/299/73 94/237/73
f 78/238/73 74/302/73 70/304/73
f 70/304/73 66/306/73 78/238/73
f 62/279/73 114/285/73 110/239/73
f 110/239/73 102/290/73 94/237/73
f 94/237/73 82/299/73 78/238/73
f 78/238/73 66/306/73 62/279/73
f 62/279/73 110/239/73 78/238/73
f 118/240/74 120/308/74 119/241/74
f 120/243/75 58/309/75 57/244/75
f 119/310/76 57/311/76 59/312/76
f 59/312/76 61/313/76 63/314/76
f 63/314/76 65/315/76 71/248/76
f 67/316/76 69/317/76 71/248/76
f 71/248/76 73/318/76 79/319/76
f 75/320/76 77/321/76 79/319/76
f 79/319/76 81/322/76 87/246/76
f 83/323/76 85/324/76 87/246/76
f 87/246/76 89/325/76 91/326/76
f 91/326/76 93/327/76 87/246/76
f 95/328/76 97/329/76 99/330/76
f 99/330/76 101/331/76 103/247/76
f 103/247/76 105/332/76 107/333/76
f 107/333/76 109/334/76 103/247/76
f 111/335/76 113/336/76 115/337/76
f 115/337/76 117/338/76 119/310/76
f 119/310/76 59/312/76 63/314/76
f 65/315/76 67/316/76 71/248/76
f 73/318/76 75/320/76 79/319/76
f 81/322/76 83/323/76 87/246/76
f 87/246/76 93/327/76 95/328/76
f 95/328/76 99/330/76 103/247/76
f 103/247/76 109/334/76 111/335/76
f 111/335/76 115/337/76 103/247/76
f 119/310/76 63/314/76 71/248/76
f 71/248/76 79/319/76 87/246/76
f 87/246/76 95/328/76 103/247/76
f 103/247/76 115/337/76 119/310/76
f 119/310/76 71/248/76 103/247/76
o Cube_Cube.005
v -2.750000 -3.000000 2.000000
v -2.750000 0.750000 2.000000
v -2.750000 -3.000000 -2.000000
v -2.750000 0.750000 -2.000000
v 2.750000 -3.000000 2.000000
v 2.750000 0.750000 2.000000
v 2.750000 -3.000000 -2.000000
v 2.750000 0.750000 -2.000000
vt 1.0000 0.0000
vt 0.0000 1.0000
vt 0.0000 0.0000
vt 1.0000 0.0000
vt 0.0000 1.0000
vt 0.0000 0.0000
vt 1.0000 0.0000
vt 0.0000 1.0000
vt 0.0000 0.0000
vt 1.0000 0.0000
vt 0.0000 1.0000
vt 0.0000 0.0000
vt 1.0000 0.0000
vt 0.0000 1.0000
vt 0.0000 0.0000
vt 1.0000 1.0000
vt 1.0000 1.0000
vt 1.0000 1.0000
vt 1.0000 1.0000
vt 1.0000 1.0000
vn -1.0000 0.0000 0.0000
vn 0.0000 0.0000 -1.0000
vn 1.0000 0.0000 0.0000
vn 0.0000 0.0000 1.0000
vn 0.0000 -1.0000 0.0000
vn 0.0000 1.0000 0.0000
usemtl material_metal_dark
s off
f 122/339/77 123/340/77 121/341/77
f 124/342/78 127/343/78 123/344/78
f 128/345/79 125/346/79 127/347/79
f 126/348/80 121/349/80 125/350/80
f 127/351/81 121/349/81 123/344/81
f 124/342/82 126/352/82 128/353/82
f 122/339/77 124/354/77 123/340/77
f 124/342/78 128/355/78 127/343/78
f 128/345/79 126/356/79 125/346/79
f 126/348/80 122/357/80 121/349/80
f 127/351/81 125/358/81 121/349/81
f 124/342/82 122/357/82 126/352/82
