# Blender v2.78 (sub 0) OBJ File: 'Table.blend'
# www.blender.org
mtllib Table.mtl
o leg-bl_Cube.001
v -52.500000 -32.500000 25.000000
v -52.500000 32.500000 25.000000
v -52.500000 -32.500000 20.000000
v -52.500000 32.500000 20.000000
v -47.500000 -32.500000 25.000000
v -47.500000 32.500000 25.000000
v -47.500000 -32.500000 20.000000
v -47.500000 32.500000 20.000000
v 54.999985 32.500000 -27.499992
v 54.999985 32.500000 27.499985
v -54.999981 32.500000 27.499985
v -54.999958 32.500000 -27.499996
v 55.000000 38.500000 -27.499977
v 54.999939 38.500000 27.500002
v -54.999996 38.500000 27.499981
v -54.999969 38.500000 -27.499985
v 47.500000 -32.499996 24.999998
v 47.500000 32.500000 24.999998
v 47.500000 -32.499996 19.999998
v 47.500000 32.500000 19.999998
v 52.500000 -32.499996 24.999998
v 52.500000 32.500000 24.999998
v 52.500000 -32.499996 19.999998
v 52.500000 32.500000 19.999998
v -52.500000 -32.500000 -20.000000
v -52.500000 32.500000 -20.000000
v -52.500000 -32.500000 -25.000000
v -52.500000 32.500000 -25.000000
v -47.500000 -32.500000 -20.000000
v -47.500000 32.500000 -20.000000
v -47.500000 -32.500000 -25.000000
v -47.500000 32.500000 -25.000000
v 47.500000 -32.500000 -20.000000
v 47.500000 32.500000 -20.000000
v 47.500000 -32.500000 -25.000000
v 47.500000 32.500000 -25.000000
v 52.500000 -32.500000 -20.000000
v 52.500000 32.500000 -20.000000
v 52.500000 -32.500000 -25.000000
v 52.500000 32.500000 -25.000000
vt 0.5190 0.0002
vt 0.5955 0.9998
vt 0.5190 0.9998
vt 0.5190 0.0002
vt 0.5955 0.9998
vt 0.5190 0.9998
vt 0.9998 0.0975
vt 0.9025 0.0002
vt 0.9998 0.0002
vt 0.5955 0.9998
vt 0.5190 0.0002
vt 0.5955 0.0002
vt 0.9025 0.0975
vt 0.9998 0.0002
vt 0.9998 0.0975
vt 0.9025 0.0975
vt 0.9998 0.0002
vt 0.0002 0.4998
vt 0.9998 0.0002
vt 0.9998 0.4998
vt 0.0002 0.4998
vt 0.9998 0.0002
vt 0.9998 0.4998
vt 0.4998 0.0453
vt 0.0002 0.0002
vt 0.4998 0.0002
vt 0.9998 0.0453
vt 0.0002 0.0002
vt 0.9998 0.0002
vt 0.0002 0.0453
vt 0.4998 0.0002
vt 0.4998 0.0453
vt 0.9998 0.0453
vt 0.0002 0.0002
vt 0.9998 0.0002
vt 0.5190 0.0002
vt 0.5955 0.9998
vt 0.5190 0.9998
vt 0.5190 0.0002
vt 0.5955 0.9998
vt 0.5190 0.9998
vt 0.9998 0.0975
vt 0.9025 0.0002
vt 0.9998 0.0002
vt 0.5955 0.9998
vt 0.5190 0.0002
vt 0.5955 0.0002
vt 0.9025 0.0975
vt 0.9998 0.0002
vt 0.9998 0.0975
vt 0.9025 0.0975
vt 0.9998 0.0002
vt 0.5190 0.0002
vt 0.5955 0.9998
vt 0.5190 0.9998
vt 0.5190 0.0002
vt 0.5955 0.9998
vt 0.5190 0.9998
vt 0.9998 0.0975
vt 0.9025 0.0002
vt 0.9998 0.0002
vt 0.5955 0.9998
vt 0.5190 0.0002
vt 0.5955 0.0002
vt 0.9025 0.0975
vt 0.9998 0.0002
vt 0.9998 0.0975
vt 0.9025 0.0975
vt 0.9998 0.0002
vt 0.5190 0.0002
vt 0.5955 0.9998
vt 0.5190 0.9998
vt 0.5190 0.0002
vt 0.5955 0.9998
vt 0.5190 0.9998
vt 0.9998 0.0975
vt 0.9025 0.0002
vt 0.9998 0.0002
vt 0.5955 0.9998
vt 0.5190 0.0002
vt 0.5955 0.0002
vt 0.9025 0.0975
vt 0.9998 0.0002
vt 0.9998 0.0975
vt 0.9025 0.0975
vt 0.9998 0.0002
vt 0.5955 0.0002
vt 0.5955 0.0002
vt 0.9025 0.0975
vt 0.5190 0.9998
vt 0.9025 0.0002
vt 0.0002 0.0002
vt 0.0002 0.0453
vt 0.0002 0.0453
vt 0.0002 0.0453
vt 0.5955 0.0002
vt 0.5955 0.0002
vt 0.9025 0.0975
vt 0.5190 0.9998
vt 0.9025 0.0002
vt 0.5955 0.0002
vt 0.5955 0.0002
vt 0.9025 0.0975
vt 0.5190 0.9998
vt 0.9025 0.0002
vt 0.5955 0.0002
vt 0.5955 0.0002
vt 0.9025 0.0975
vt 0.5190 0.9998
vt 0.9025 0.0002
vn -1.0000 0.0000 0.0000
vn 0.0000 0.0000 -1.0000
vn 1.0000 0.0000 0.0000
vn 0.0000 0.0000 1.0000
vn 0.0000 -1.0000 0.0000
vn 0.0000 1.0000 0.0000
usemtl material_woodtable
s off
f 2/1/1 3/2/1 1/3/1
f 4/4/2 7/5/2 3/6/2
f 8/7/3 5/8/3 7/9/3
f 6/10/4 1/11/4 5/12/4
f 7/13/5 1/14/5 3/15/5
f 4/16/6 6/17/6 8/7/6
f 10/18/5 12/19/5 9/20/5
f 16/21/6 14/22/6 13/23/6
f 13/24/3 10/25/3 9/26/3
f 14/27/4 11/28/4 10/29/4
f 11/30/1 16/31/1 12/32/1
f 9/33/2 16/34/2 13/35/2
f 18/36/1 19/37/1 17/38/1
f 20/39/2 23/40/2 19/41/2
f 24/42/3 21/43/3 23/44/3
f 22/45/4 17/46/4 21/47/4
f 23/48/5 17/49/5 19/50/5
f 20/51/6 22/52/6 24/42/6
f 26/53/1 27/54/1 25/55/1
f 28/56/2 31/57/2 27/58/2
f 32/59/3 29/60/3 31/61/3
f 30/62/4 25/63/4 29/64/4
f 31/65/5 25/66/5 27/67/5
f 28/68/6 30/69/6 32/59/6
f 34/70/1 35/71/1 33/72/1
f 36/73/2 39/74/2 35/75/2
f 40/76/3 37/77/3 39/78/3
f 38/79/4 33/80/4 37/81/4
f 39/82/5 33/83/5 35/84/5
f 36/85/6 38/86/6 40/76/6
f 2/1/1 4/87/1 3/2/1
f 4/4/2 8/88/2 7/5/2
f 8/7/3 6/89/3 5/8/3
f 6/10/4 2/90/4 1/11/4
f 7/13/5 5/8/5 1/14/5
f 4/16/6 2/91/6 6/17/6
f 10/18/5 11/28/5 12/19/5
f 16/21/6 15/92/6 14/22/6
f 13/24/3 14/93/3 10/25/3
f 14/27/4 15/94/4 11/28/4
f 11/30/1 15/92/1 16/31/1
f 9/33/2 12/95/2 16/34/2
f 18/36/1 20/96/1 19/37/1
f 20/39/2 24/97/2 23/40/2
f 24/42/3 22/98/3 21/43/3
f 22/45/4 18/99/4 17/46/4
f 23/48/5 21/43/5 17/49/5
f 20/51/6 18/100/6 22/52/6
f 26/53/1 28/101/1 27/54/1
f 28/56/2 32/102/2 31/57/2
f 32/59/3 30/103/3 29/60/3
f 30/62/4 26/104/4 25/63/4
f 31/65/5 29/60/5 25/66/5
f 28/68/6 26/105/6 30/69/6
f 34/70/1 36/106/1 35/71/1
f 36/73/2 40/107/2 39/74/2
f 40/76/3 38/108/3 37/77/3
f 38/79/4 34/109/4 33/80/4
f 39/82/5 37/77/5 33/83/5
f 36/85/6 34/110/6 38/86/6
