# Blender v2.78 (sub 0) OBJ File: 'Table.blend'
# www.blender.org
mtllib Table.mtl
o leg-bl_Cube.001
v -62.045452 -32.500000 27.272728
v -62.045452 32.500000 27.272728
v -56.136360 -32.500000 34.090912
v -56.136360 32.500000 34.090912
v -56.136360 -32.500000 27.272728
v -56.136360 32.500000 27.272728
v 64.999969 32.500000 -37.499989
v 64.999969 32.500000 37.499981
v -64.999969 32.500000 37.499981
v -64.999947 32.500000 -37.499996
v 64.999992 38.500000 -37.499969
v 64.999931 38.500000 37.500004
v -64.999992 38.500000 37.499973
v -64.999962 38.500000 -37.499981
v 56.136360 -32.499996 34.090908
v 56.136360 32.500000 34.090908
v 62.045452 -32.499996 34.090908
v 62.045452 32.500000 34.090908
v 62.045452 32.500000 27.272726
v -62.045452 -32.500000 -27.272728
v -62.045452 32.500000 -27.272728
v -62.045452 -32.500000 -34.090912
v -62.045452 32.500000 -34.090912
v -56.136360 -32.500000 -27.272728
v -56.136360 32.500000 -27.272728
v -56.136360 -32.500000 -34.090912
v -56.136360 32.500000 -34.090912
v 56.136360 -32.500000 -27.272728
v 56.136360 32.500000 -27.272728
v 62.045452 -32.500000 -27.272728
v 62.045452 32.500000 -27.272728
v 62.045452 -32.500000 -34.090912
v -62.045452 -32.500000 34.090912
v -62.045452 32.500000 34.090912
v 56.136360 -32.500000 27.272726
v 56.136360 32.500000 27.272726
v 62.045452 -32.500000 27.272726
v 56.136360 -32.500000 -34.090912
v 56.136360 32.500000 -34.090912
v 62.045452 32.500000 -34.090912
vt 0.0002 0.4998
vt 0.9998 0.0002
vt 0.9998 0.4998
vt 2.0000 0.0000
vt 0.0000 1.5059
vt 0.0000 0.0000
vt 1.5059 0.0821
vt 0.0002 0.0002
vt 1.5059 0.0002
vt 2.0000 0.0545
vt 0.0002 0.0002
vt 2.0000 0.0002
vt 0.0002 0.0821
vt 1.5059 0.0002
vt 1.5059 0.0821
vt 2.0000 0.0545
vt 0.0002 0.0002
vt 2.0000 0.0002
vt 2.0000 1.5059
vt 0.0002 0.0821
vt 0.0002 0.0545
vt 0.0002 0.0002
vt 0.0002 0.0545
vt 1.0000 1.0000
vt 0.0000 0.0000
vt 1.0000 0.0000
vt 0.0000 0.0000
vt 1.0000 1.0000
vt 0.0000 1.0000
vt 1.0000 1.0000
vt 0.0000 0.0000
vt 1.0000 0.0000
vt 0.0000 1.0000
vt 1.0000 0.0000
vt 0.0000 1.0000
vt 0.0000 0.0000
vt 1.0000 1.0000
vt 0.0000 0.0000
vt 1.0000 0.0000
vt 1.0000 1.0000
vt 0.0000 0.0000
vt 1.0000 0.0000
vt 1.0000 1.0000
vt 0.0000 0.0000
vt 1.0000 0.0000
vt 0.0000 1.0000
vt 1.0000 0.0000
vt 0.0000 1.0000
vt 0.0000 0.0000
vt 1.0000 1.0000
vt 0.0000 0.0000
vt 1.0000 0.0000
vt 1.0000 1.0000
vt 0.0000 0.0000
vt 1.0000 0.0000
vt 1.0000 1.0000
vt 0.0000 0.0000
vt 1.0000 0.0000
vt 1.0000 1.0000
vt 0.0000 0.0000
vt 1.0000 0.0000
vt 0.0000 1.0000
vt 1.0000 0.0000
vt 0.0000 1.0000
vt 0.0000 0.0000
vt 1.0000 1.0000
vt 0.0000 0.0000
vt 1.0000 0.0000
vt 1.0000 1.0000
vt 0.0000 0.0000
vt 1.0000 0.0000
vt 1.0000 1.0000
vt 0.0000 0.0000
vt 1.0000 0.0000
vt 0.0000 1.0000
vt 1.0000 0.0000
vt 0.0000 1.0000
vt 0.0000 0.0000
vt 1.0000 1.0000
vt 0.0000 0.0000
vt 1.0000 0.0000
vt 1.0000 1.0000
vt 0.0000 0.0000
vt 1.0000 0.0000
vt 1.0000 1.0000
vt 0.0000 0.0000
vt 1.0000 0.0000
vt 0.0000 1.0000
vt 1.0000 0.0000
vt 1.0000 1.0000
vt 0.0000 1.0000
vt 0.0000 1.0000
vt 1.0000 1.0000
vt 0.0000 1.0000
vt 0.0000 1.0000
vt 0.0000 1.0000
vt 1.0000 1.0000
vt 0.0000 1.0000
vt 0.0000 1.0000
vt 1.0000 1.0000
vt 0.0000 1.0000
vt 0.0000 1.0000
vt 0.0000 1.0000
vn 0.0000 -1.0000 0.0000
vn 0.0000 1.0000 -0.0000
vn 1.0000 -0.0000 0.0000
vn 0.0000 -0.0000 1.0000
vn -1.0000 -0.0000 -0.0000
vn 0.0000 0.0000 -1.0000
usemtl material_woodtable
s off
f 8/1/1 10/2/1 7/3/1
f 14/4/2 12/5/2 11/6/2
f 11/7/3 8/8/3 7/9/3
f 12/10/4 9/11/4 8/12/4
f 9/13/5 14/14/5 10/15/5
f 7/16/6 14/17/6 11/18/6
f 8/1/1 9/11/1 10/2/1
f 14/4/2 13/19/2 12/5/2
f 11/7/3 12/20/3 8/8/3
f 12/10/4 13/21/4 9/11/4
f 9/13/5 13/22/5 14/14/5
f 7/16/6 10/23/6 14/17/6
usemtl material_woodtableleg
f 34/24/5 1/25/5 33/26/5
f 2/27/6 5/28/6 1/29/6
f 6/30/3 3/31/3 5/32/3
f 5/32/1 33/33/1 1/25/1
f 2/34/2 4/35/2 6/36/2
f 16/37/5 35/38/5 15/39/5
f 19/40/3 17/41/3 37/42/3
f 18/43/4 15/44/4 17/45/4
f 37/42/1 15/46/1 35/38/1
f 36/47/2 18/48/2 19/49/2
f 21/50/5 22/51/5 20/52/5
f 23/53/6 26/54/6 22/55/6
f 27/56/3 24/57/3 26/58/3
f 25/59/4 20/60/4 24/61/4
f 26/58/1 20/62/1 22/51/1
f 23/63/2 25/64/2 27/65/2
f 29/66/5 38/67/5 28/68/5
f 40/69/3 30/70/3 32/71/3
f 31/72/4 28/73/4 30/74/4
f 32/71/1 28/75/1 38/67/1
f 39/76/2 31/77/2 40/78/2
f 4/79/4 33/80/4 3/81/4
f 36/82/6 37/83/6 35/84/6
f 39/85/6 32/86/6 38/87/6
f 34/24/5 2/88/5 1/25/5
f 2/27/6 6/89/6 5/28/6
f 6/30/3 4/35/3 3/31/3
f 5/32/1 3/90/1 33/33/1
f 2/34/2 34/24/2 4/35/2
f 16/37/5 36/91/5 35/38/5
f 19/40/3 18/48/3 17/41/3
f 18/43/4 16/92/4 15/44/4
f 37/42/1 17/93/1 15/46/1
f 36/47/2 16/37/2 18/48/2
f 21/50/5 23/94/5 22/51/5
f 23/53/6 27/95/6 26/54/6
f 27/56/3 25/64/3 24/57/3
f 25/59/4 21/96/4 20/60/4
f 26/58/1 24/97/1 20/62/1
f 23/63/2 21/50/2 25/64/2
f 29/66/5 39/98/5 38/67/5
f 40/69/3 31/77/3 30/70/3
f 31/72/4 29/99/4 28/73/4
f 32/71/1 30/100/1 28/75/1
f 39/76/2 29/66/2 31/77/2
f 4/79/4 34/101/4 33/80/4
f 36/82/6 19/102/6 37/83/6
f 39/85/6 40/103/6 32/86/6
