# Blender v2.78 (sub 0) OBJ File: ''
# www.blender.org
o Cube
v 54.999977 -2.000000 -27.499987
v 54.999977 -2.000000 27.499989
v -54.999985 -2.000000 27.499983
v -54.999958 -2.000000 -27.499998
v 55.000004 2.000000 -27.499973
v 54.999943 2.000000 27.500006
v -54.999996 2.000000 27.499979
v -54.999973 2.000000 -27.499989
vn 0.0000 -1.0000 0.0000
vn 0.0000 1.0000 0.0000
vn 1.0000 -0.0000 0.0000
vn -0.0000 -0.0000 1.0000
vn -1.0000 -0.0000 -0.0000
vn 0.0000 0.0000 -1.0000
s off
f 2//1 4//1 1//1
f 8//2 6//2 5//2
f 5//3 2//3 1//3
f 6//4 3//4 2//4
f 7//5 4//5 3//5
f 1//6 8//6 5//6
f 2//1 3//1 4//1
f 8//2 7//2 6//2
f 5//3 6//3 2//3
f 6//4 7//4 3//4
f 7//5 8//5 4//5
f 1//6 4//6 8//6
